<?xml version="1.0" standalone="no"?>
<!DOCTYPE svg PUBLIC "-//W3C//DTD SVG 1.1//EN" "http://www.w3.org/Graphics/SVG/1.1/DTD/svg11.dtd" >
<svg xmlns="http://www.w3.org/2000/svg">
<metadata>Generated by IcoMoon</metadata>
<defs>
<font id="voxez" horiz-adv-x="1024">
<font-face units-per-em="1024" ascent="960" descent="-64" />
<missing-glyph horiz-adv-x="1024" />
<glyph unicode="&#x20;" horiz-adv-x="512" d="" />
<glyph unicode="&#xe903;" d="M447.816 166.37c60.046 60.046 60.046 157.4 0 217.446s-157.4 60.046-217.446 0-169.080-266.434-109.034-326.48c60.046-60.046 266.434 48.988 326.48 109.034z" />
<glyph unicode="&#xe904;" d="M393.16 583.454c-99.328 99.328-265.060 55.112-389.328-99.926-5.602-6.99-4.986-17.104 1.348-23.438l14.828-14.828c6.058-6.058 15.59-6.902 22.592-1.968 38.16 26.898 160.522 101.144 245.588 16.078l104.972 124.082z" />
<glyph unicode="&#xe905;" d="M393.16 583.454c-22.022 22.022-47.312 36.972-74.686 45.238-32.516-38.83-64.842-81.816-95.822-129.29-0.68-1.044-1.328-2.102-1.954-3.168 23.544-4.75 46.638-16.012 67.49-36.864l104.972 124.084z" />
<glyph unicode="&#xe906;" d="M647.454 329.16c99.328-99.328 55.112-265.060-99.926-389.328-6.99-5.602-17.104-4.986-23.438 1.348l-14.828 14.828c-6.058 6.058-6.902 15.59-1.968 22.592 26.898 38.162 101.144 160.522 16.078 245.588l124.082 104.972z" />
<glyph unicode="&#xe907;" d="M647.454 329.16c22.022-22.022 36.972-47.312 45.24-74.686-38.83-32.516-81.818-64.842-129.29-95.822-1.044-0.682-2.102-1.328-3.168-1.954-4.75 23.544-16.012 46.638-36.864 67.49l124.082 104.972z" />
<glyph unicode="&#xe908;" d="M497.596 200.592c10.992-10.992 28.172-12.71 41.19-4.214 382.998 249.934 551.696 649.372 461.33 739.738s-489.804-78.332-739.738-461.33c-8.496-13.020-6.778-30.198 4.214-41.19l233.004-233.004z" />
<glyph unicode="&#xe909;" d="M872.1 707.9c0-55.339-44.861-100.2-100.2-100.2s-100.2 44.861-100.2 100.2c0 55.339 44.861 100.2 100.2 100.2s100.2-44.861 100.2-100.2z" />
<glyph unicode="&#xe90a;" d="M842.746 778.746c-39.132 39.132-102.576 39.132-141.708 0s-39.132-102.578 0-141.71c14.688-14.688 32.804-23.862 51.772-27.524-7.994 3.984-15.502 9.284-22.166 15.95-33.144 33.144-33.144 86.884 0 120.028 33.144 33.146 86.884 33.146 120.028 0 10.378-10.378 17.506-22.776 21.384-35.928-0.416 25.086-10.168 50.044-29.31 69.184z" />
<glyph unicode="&#xe90b;" d="M771.892 592.742c-29.5 0-59.002 11.23-81.46 33.688-21.758 21.76-33.742 50.692-33.742 81.464s11.984 59.702 33.742 81.46 50.688 33.742 81.46 33.742 59.702-11.984 81.46-33.742c21.758-21.76 33.742-50.69 33.742-81.46 0-30.772-11.984-59.704-33.742-81.464v0c-22.458-22.458-51.958-33.688-81.46-33.688zM771.892 793.096c-22.758 0-44.156-8.864-60.248-24.958-16.092-16.092-24.956-37.488-24.956-60.246 0-22.76 8.862-44.156 24.956-60.248 33.22-33.222 87.276-33.222 120.496 0 16.092 16.092 24.956 37.488 24.956 60.248 0 22.758-8.862 44.154-24.956 60.246-16.092 16.094-37.488 24.958-60.248 24.958zM842.748 637.038v0z" />
<glyph unicode="&#xe90c;" d="M318.532 556.778c-20.134-26.194-39.628-53.598-58.286-82.198-8.444-12.942-6.578-30.060 4.35-40.988l232.998-232.998c10.928-10.928 28.044-12.794 40.988-4.35 28.6 18.658 56.004 38.152 82.198 58.286l-302.248 302.248z" />
<glyph unicode="&#xe90d;" d="M300.935 397.272l-21.213 21.213 88.556 88.556 21.213-21.213-88.556-88.556z" />
<glyph unicode="&#xe90e;" d="M482.535 215.701l-21.213 21.213 88.556 88.556 21.213-21.213-88.556-88.556z" />
<glyph unicode="&#xe90f;" d="M1000.116 936.116c-34.598 34.596-114.498 31.22-213.966-7.616l206.35-206.35c38.838 99.468 42.214 179.368 7.616 213.966z" />
<glyph unicode="&#xe910;" d="M1014.514 914.56c-14.426-158.464-183.068-447.38-484.194-643.886-13.018-8.496-30.198-6.778-41.19 4.214l-217.236 217.236c-3.872-5.73-7.712-11.508-11.516-17.338-8.496-13.020-6.778-30.198 4.214-41.19l233.004-233.004c10.992-10.992 28.172-12.71 41.19-4.214 357.974 233.604 528.726 597.8 475.728 718.182z" />
<glyph unicode="&#xe911;" d="M534.296 442.318l-27.978 27.978c-9.092 9.092-23.834 9.092-32.926 0l-222.746-222.746c-9.092-9.092-9.092-23.834 0-32.926l27.978-27.978c9.092-9.092 23.834-9.092 32.926 0l222.746 222.746c9.092 9.092 9.092 23.834 0 32.926z" />
<glyph unicode="&#xe912;" d="M269.257 35.042c47.004 47.004 47.004 123.212 0 170.214s-123.21 47.002-170.214 0c-47.004-47.004-132.354-208.56-85.35-255.564 47.002-47.004 208.56 38.346 255.564 85.35z" />
<glyph unicode="&#xe913;" d="M525.921 626.041c0-71.289-57.791-129.080-129.080-129.080s-129.080 57.791-129.080 129.080c0 71.289 57.791 129.080 129.080 129.080s129.080-57.791 129.080-129.080z" />
<glyph unicode="&#xe914;" d="M488.121 717.322c-19.896 19.896-44.676 31.904-70.478 36.094 7.194-4.74 14.020-10.274 20.352-16.604 50.408-50.408 50.408-132.134 0-182.542-30.512-30.512-72.494-42.52-112.064-36.094 50.092-33.006 118.114-27.472 162.192 16.604 50.406 50.406 50.406 132.134-0.002 182.542z" />
<glyph unicode="&#xe915;" d="M555.775 695.419l-28.064 28.064c-9.232 9.232-24.198 9.232-33.43 0l-194.866-194.866c-9.232-9.232-9.232-24.198 0-33.43l28.064-28.062c9.232-9.232 24.198-9.232 33.43 0l194.866 194.866c9.232 9.23 9.232 24.198 0 33.428z" />
<glyph unicode="&#xe916;" d="M344.197 450.412l-40.971 40.971 228.292 228.292 40.971-40.971-228.292-228.292z" />
<glyph unicode="&#xe917;" d="M867.74 788.738c-3.838 0-7.678 1.464-10.606 4.392-5.858 5.86-5.858 15.356 0 21.214l141.262 141.264c5.858 5.856 15.356 5.856 21.212 0 5.858-5.86 5.858-15.356 0-21.214l-141.262-141.264c-2.93-2.926-6.768-4.392-10.606-4.392z" />
<glyph unicode="&#xe918;" d="M875.4 648.099l37.17 106.942c20.164 58.012-35.516 113.692-93.528 93.528l-106.942-37.168c-69.004-23.984-131.682-63.276-183.338-114.932l-302.089-302.089 231.708-231.708 302.087 302.089c51.656 51.656 90.95 114.336 114.932 183.338z" />
<glyph unicode="&#xe919;" d="M675.999 454.593c-3.838 0-7.678 1.464-10.606 4.392-5.858 5.86-5.858 15.356 0 21.214l52.802 52.8c5.858 5.856 15.356 5.856 21.212 0 5.858-5.86 5.858-15.356 0-21.214l-52.802-52.8c-2.928-2.928-6.768-4.392-10.606-4.392z" />
<glyph unicode="&#xe91a;" d="M875.4 648.099l37.17 106.942c20.164 58.012-35.516 113.692-93.528 93.528l-106.942-37.168c-23.712-8.242-46.656-18.334-68.684-30.072l201.914-201.914c11.738 22.028 21.828 44.972 30.070 68.684z" />
<glyph unicode="&#xe91b;" d="M284.733-25.956l-246.69 246.688c-10.57 10.57-10.57 27.71 0 38.28l142.858 142.858c10.57 10.57 27.71 10.57 38.28 0l246.688-246.688c10.57-10.57 10.57-27.71 0-38.28l-142.858-142.858c-10.568-10.572-27.708-10.572-38.278 0z" />
<glyph unicode="&#xe91c;" d="M284.733-25.956l-246.69 246.688c-10.57 10.57-10.57 27.71 0 38.28l71.43 71.43 284.969-284.971-71.428-71.43c-10.57-10.57-27.71-10.57-38.28 0.002z" />
<glyph unicode="&#xe91d;" d="M194.376 115.376c-3.838 0-7.678 1.464-10.606 4.392-5.858 5.86-5.858 15.356 0 21.214l115.162 115.162c5.858 5.856 15.356 5.856 21.214 0 5.858-5.86 5.858-15.356 0-21.216l-115.162-115.162c-2.932-2.926-6.77-4.39-10.608-4.39z" />
<glyph unicode="&#xe91e;" d="M123.542 186.208c-3.838 0-7.678 1.464-10.606 4.392-5.858 5.86-5.858 15.356 0 21.214l115.162 115.164c5.858 5.856 15.356 5.856 21.212 0 5.858-5.86 5.858-15.356 0-21.216l-115.162-115.162c-2.928-2.928-6.768-4.392-10.606-4.392z" />
<glyph unicode="&#xe91f;" d="M265.209 44.544c-3.838 0-7.678 1.464-10.606 4.392-5.858 5.86-5.858 15.356 0 21.214l115.162 115.162c5.858 5.856 15.356 5.856 21.212 0 5.858-5.86 5.858-15.356 0-21.214l-115.162-115.162c-2.928-2.928-6.768-4.392-10.606-4.392z" />
<glyph unicode="&#xe920;" d="M875.4 648.099l37.17 106.942c20.164 58.012-35.516 113.692-93.528 93.528l-106.942-37.168c-3.642-1.266-7.256-2.598-10.862-3.948l170.214-170.214c1.352 3.604 2.682 7.22 3.948 10.86z" />
<glyph unicode="&#xe921;" d="M395.559 382.889c-3.838 0-7.678 1.466-10.606 4.392l-13.734 13.734c-5.858 5.86-5.858 15.356 0 21.214 5.858 5.856 15.356 5.856 21.212 0l13.734-13.734c5.858-5.86 5.858-15.356 0-21.214-2.928-2.926-6.766-4.392-10.606-4.392z" />
<glyph unicode="&#xe922;" d="M625.009 612.337c-3.838 0-7.676 1.464-10.606 4.392l-13.736 13.734c-5.858 5.858-5.858 15.356-0.002 21.212 5.86 5.86 15.354 5.858 21.214 0.002l13.736-13.734c5.858-5.858 5.858-15.356 0-21.212-2.928-2.928-6.768-4.394-10.606-4.394z" />
<glyph unicode="&#xe923;" d="M553.361 514.935c12.9-12.9 12.526-34.048-1.124-46.47-12.784-11.634-32.694-10.51-44.916 1.712l-16.868 16.868c-5.352 5.352-5.35 14.026 0 19.378l26.022 26.020c5.35 5.352 14.026 5.352 19.378 0l17.508-17.508z" />
<glyph unicode="&#xe924;" d="M575.035 404.889l-92.926-92.926c-11.866-11.866-11.866-31.106 0-42.972l41.294-41.294 135.898 135.898-41.294 41.294c-11.864 11.868-31.104 11.868-42.972 0z" />
<glyph unicode="&#xe925;" d="M871.168 847.2c6.514-15.582 7.764-33.732 1.37-52.126l-37.17-106.942c-23.984-69.004-63.276-131.682-114.932-183.338l-302.087-302.089 40.032-40.032 302.087 302.089c51.656 51.656 90.948 114.336 114.932 183.338l37.17 106.942c13.77 39.618-7.842 78.13-41.402 92.158z" />
<glyph unicode="&#xe926;" d="M465.871 155.182l-45.284 45.284c10.57-10.57 10.57-27.71 0-38.28l-142.858-142.858c-10.57-10.57-27.71-10.57-38.28 0l45.282-45.284c10.57-10.57 27.71-10.57 38.28 0l142.858 142.858c10.572 10.57 10.572 27.708 0.002 38.28z" />
<glyph unicode="&#xe927;" d="M449.737 174.633c58.286 58.286 58.286 152.791 0 211.075-58.286 58.286-152.789 58.286-211.075 0-58.286-58.284-164.127-258.628-105.839-316.914 58.286-58.286 258.628 47.552 316.914 105.839z" />
<glyph unicode="&#xe928;" d="M396.682 579.5c-96.419 96.419-257.294 53.498-377.922-97.001-5.438-6.786-4.84-16.602 1.308-22.752l14.394-14.394c5.88-5.88 15.134-6.7 21.93-1.91 37.042 26.108 155.821 98.181 238.391 15.606l101.899 120.451z" />
<glyph unicode="&#xe929;" d="M396.682 579.5c-21.376 21.376-45.926 35.89-72.498 43.914-31.564-37.692-62.942-79.42-93.015-125.503-0.66-1.014-1.29-2.040-1.896-3.076 22.854-4.612 45.272-15.544 65.512-35.784l101.897 120.449z" />
<glyph unicode="&#xe92a;" d="M643.526 332.656c96.419-96.419 53.498-257.294-97.001-377.922-6.786-5.438-16.602-4.84-22.752 1.308l-14.394 14.394c-5.88 5.88-6.7 15.134-1.91 21.93 26.108 37.042 98.181 155.821 15.606 238.391l120.451 101.899z" />
<glyph unicode="&#xe92b;" d="M643.526 332.656c21.376-21.376 35.888-45.926 43.914-72.498-37.692-31.564-79.42-62.942-125.503-93.015-1.012-0.662-2.040-1.29-3.074-1.896-4.612 22.854-15.544 45.272-35.784 65.512l120.447 101.897z" />
<glyph unicode="&#xe92c;" d="M498.059 207.856c10.67-10.67 27.346-12.338 39.984-4.090 371.776 242.609 535.533 630.346 447.813 718.064s-475.453-76.036-718.066-447.815c-8.246-12.638-6.58-29.312 4.090-39.984l226.179-226.175z" />
<glyph unicode="&#xe92d;" d="M861.595 700.298c0-53.72-43.549-97.269-97.269-97.269s-97.269 43.549-97.269 97.269c0 53.72 43.549 97.269 97.269 97.269s97.269-43.549 97.269-97.269z" />
<glyph unicode="&#xe92e;" d="M833.099 769.071c-37.986 37.986-99.573 37.986-137.559 0s-37.986-99.573 0-137.559c14.258-14.258 31.842-23.164 50.254-26.718-7.76 3.868-15.048 9.014-21.516 15.482-32.174 32.174-32.174 84.338 0 116.513s84.338 32.174 116.513 0c10.074-10.074 16.992-22.11 20.758-34.876-0.404 24.352-9.87 48.578-28.45 67.158z" />
<glyph unicode="&#xe92f;" d="M764.318 588.024c-29.988 0-58.18 11.678-79.384 32.882-21.206 21.204-32.882 49.398-32.882 79.386 0 29.986 11.678 58.18 32.882 79.384 21.204 21.206 49.398 32.882 79.384 32.882 29.988 0 58.18-11.678 79.384-32.882 21.206-21.206 32.882-49.398 32.882-79.384 0-29.988-11.678-58.182-32.882-79.386v0 0c-21.202-21.204-49.396-32.882-79.384-32.882zM764.318 782.561c-21.974 0-42.634-8.558-58.172-24.098-15.538-15.536-24.096-36.196-24.096-58.17 0-21.976 8.558-42.634 24.096-58.172 15.538-15.54 36.198-24.098 58.172-24.098s42.634 8.558 58.172 24.098v0c15.538 15.538 24.096 36.196 24.096 58.172 0 21.974-8.558 42.634-24.096 58.17-15.538 15.538-36.196 24.098-58.172 24.098z" />
<glyph unicode="&#xe930;" d="M324.24 553.606c-19.544-25.428-38.468-52.028-56.578-79.79-8.196-12.564-6.386-29.18 4.222-39.786l226.171-226.171c10.608-10.608 27.222-12.418 39.786-4.222 27.762 18.112 54.364 37.034 79.79 56.578l-293.392 293.392z" />
<glyph unicode="&#xe931;" d="M372.209 505.661l21.213-21.213-85.964-85.964-21.213 21.213 85.964 85.964z" />
<glyph unicode="&#xe932;" d="M548.496 329.404l21.213-21.213-85.964-85.964-21.213 21.213 85.964 85.964z" />
<glyph unicode="&#xe933;" d="M985.856 921.83c-33.584 33.584-111.143 30.306-207.697-7.392l200.303-200.303c37.7 96.553 40.978 174.111 7.394 207.695z" />
<glyph unicode="&#xe934;" d="M999.832 900.906c-14.002-153.823-177.703-434.273-470.009-625.022-12.638-8.246-29.312-6.58-39.984 4.090l-210.869 210.871c-3.758-5.562-7.486-11.17-11.178-16.83-8.246-12.638-6.58-29.312 4.090-39.984l226.175-226.177c10.67-10.67 27.346-12.336 39.984-4.090 347.486 226.759 513.235 580.285 461.791 697.142z" />
<glyph unicode="&#xe935;" d="M533.683 442.497l-27.158 27.16c-8.826 8.826-23.136 8.826-31.962 0l-216.219-216.219c-8.826-8.826-8.826-23.136 0-31.962l27.158-27.158c8.826-8.826 23.136-8.826 31.962 0l216.219 216.219c8.826 8.826 8.826 23.134 0 31.96z" />
<glyph unicode="&#xe936;" d="M996.462 932.438c-22.208 22.208-59.762 31.27-108.579 26.186-84.618-8.798-195.727-57.898-304.842-134.709-60.88-42.858-140.815-108.247-220.817-200.141-23.338 12.548-48.95 19.844-76.332 21.686-8.246 0.496-15.418-5.696-15.972-13.96-0.556-8.266 5.694-15.418 13.96-15.974 20.82-1.4 40.388-6.53 58.396-15.248-25.85-31.174-51.544-65.14-76.436-102.071-35.57 17.446-77.236 19.058-124.113 4.722-41.464-12.682-76.676-35.028-93.975-47.22-0.824-0.578-1.954-0.474-2.68 0.254l-14.394 14.394c-0.756 0.756-0.848 1.97-0.212 2.766 60.248 75.166 131.919 124.409 201.807 138.657 8.118 1.654 13.356 9.576 11.702 17.694s-9.572 13.362-17.694 11.702c-76.746-15.644-154.603-68.664-219.223-149.291-10.23-12.762-9.196-31.136 2.406-42.738l14.396-14.396c6.234-6.232 14.444-9.432 22.712-9.432 6.422 0 12.878 1.93 18.466 5.87 26.352 18.572 114.087 73.646 185.329 41.118-5.928-16.738-2.012-35.956 10.91-48.878l0.932-0.932c-12.414-7.152-23.862-15.884-34.152-26.174-36.066-36.064-81.854-113.589-106.511-180.323-2.872-7.772 1.102-16.398 8.872-19.27 1.714-0.632 3.47-0.934 5.196-0.934 6.1 0 11.836 3.75 14.072 9.804 25.646 69.418 70.772 140.701 99.585 169.509 10.362 10.364 22.148 18.802 35.088 25.238l49.84-49.84-86.459-86.459c-7.102-7.102-11.014-16.542-11.014-26.588 0-10.042 3.912-19.484 11.012-26.588l27.158-27.158c7.33-7.33 16.958-10.994 26.588-10.994 9.628 0 19.258 3.664 26.588 10.994l86.461 86.461 49.838-49.838c-6.438-12.942-14.876-24.726-25.238-35.088-25.68-25.682-86.663-65.994-153.533-93.361-68.714-28.126-121.861-32.792-142.171-12.48-17.12 17.12-13.696 52.602-7.808 79.352 1.78 8.092-3.334 16.094-11.426 17.876-8.084 1.776-16.092-3.336-17.874-11.426-10.906-49.556-5.56-85.563 15.894-107.017 11.434-11.434 30.494-21.41 62.21-21.408 27.174 0.002 63.64 7.328 112.537 27.338 62.254 25.476 130.969 67.496 163.383 99.911 10.29 10.288 19.022 21.736 26.174 34.152l0.934-0.934c8.99-8.988 21.028-13.634 33.162-13.634 5.306 0 10.626 0.91 15.722 2.714 32.518-71.24-22.552-158.969-41.122-185.315-9.010-12.786-7.512-30.104 3.564-41.182l14.394-14.392c6.258-6.258 14.486-9.442 22.74-9.442 7.050 0 14.12 2.324 20 7.036 68.36 54.792 116.633 118.507 139.599 184.247 21.49 61.516 18.652 121.667-7.734 170.939 35.074 30.542 68.488 62.98 100.047 97.159 63.162 68.414 118.181 143.595 159.107 217.409 4.016 7.246 1.4 16.376-5.846 20.392-7.248 4.016-16.376 1.4-20.392-5.846-39.78-71.754-93.347-144.927-154.911-211.605-45.252-49.016-94.433-94.345-146.903-135.541l-97.165 97.167 22.58 22.58c14.66 14.66 14.66 38.516 0 53.176l-27.158 27.158c-14.66 14.66-38.514 14.658-53.174 0l-22.58-22.58-97.191 97.193c10.704 13.638 21.464 26.766 32.236 39.402 0.314 0.334 0.616 0.68 0.902 1.048 80.578 94.297 161.687 160.907 222.987 204.057 59.396 41.812 119.077 75.054 174.133 97.555l186.401-186.401c-3.57-8.764-7.402-17.664-11.532-26.692-3.448-7.534-0.134-16.434 7.398-19.882 7.53-3.446 16.434-0.134 19.88 7.4 5.748 12.562 10.948 24.856 15.656 36.882 0.102 0.24 0.192 0.484 0.282 0.728 40.26 103.163 42.166 185.215 3.924 223.457zM664.292 278.298c19.904-40.962 20.978-89.361 2.894-141.125-21.11-60.426-66.078-119.463-130.043-170.735-0.794-0.636-2.008-0.544-2.762 0.212l-14.392 14.39c-0.73 0.73-0.838 1.86-0.256 2.686 12.192 17.296 34.538 52.508 47.22 93.973 14.336 46.874 12.726 88.545-4.724 124.115 35.282 23.786 69.338 49.338 102.063 76.484zM594.861 261.77c-21.182-15.82-42.862-30.986-65.018-45.444-6.678-4.354-15.586-3.46-21.18 2.134l-15.654 15.654c-0.028 0.028-0.056 0.056-0.084 0.084l-57.184 57.184 64.752 64.754 94.369-94.367zM451.975 425.853c0.002 0.004 0.006 0.006 0.008 0.008s0.006 0.006 0.008 0.008l33.178 33.18c1.482 1.482 3.428 2.222 5.376 2.222 1.946 0 3.892-0.74 5.374-2.222l27.158-27.158c2.962-2.964 2.962-7.784 0-10.746l-216.221-216.219c-2.962-2.964-7.786-2.964-10.75 0l-27.158 27.158c-1.936 1.936-2.226 4.198-2.226 5.372s0.29 3.438 2.226 5.372l97.063 97.063c0.002 0.002 0.004 0.002 0.004 0.004 0.002 0.002 0.002 0.002 0.004 0.004l85.957 85.955zM420.162 436.469l-64.752-64.754-57.18 57.182c-0.030 0.030-0.058 0.060-0.088 0.088l-15.652 15.652c-5.594 5.594-6.492 14.502-2.136 21.18 0.998 1.53 2.010 3.020 3.012 4.542 0.012 0.018 0.026 0.034 0.036 0.052 0.004 0.006 0.006 0.012 0.010 0.018 13.892 21.084 28.060 41.208 42.39 60.402l94.361-94.363zM972.47 741.341l-167.217 167.217c30.752 10.616 59.656 17.518 85.733 20.23 39.524 4.104 68.666-1.962 84.262-17.562 26.44-26.44 24.69-90.279-2.778-169.885z" />
<glyph unicode="&#xe937;" glyph-name="spaceship-1" d="M684.932 779.677c-21.206-21.206-32.882-49.398-32.882-79.384 0-29.988 11.678-58.182 32.882-79.386 21.204-21.206 49.398-32.882 79.384-32.882 29.988 0 58.18 11.678 79.384 32.882 21.206 21.204 32.882 49.398 32.882 79.386 0 29.986-11.678 58.18-32.882 79.384-21.204 21.206-49.398 32.882-79.384 32.882-29.986 0.002-58.18-11.676-79.384-32.882zM822.489 758.463c15.538-15.538 24.096-36.196 24.096-58.17 0-21.976-8.558-42.634-24.096-58.172-15.538-15.54-36.198-24.098-58.172-24.098s-42.634 8.558-58.172 24.098c-15.538 15.538-24.096 36.196-24.096 58.172 0 21.974 8.558 42.634 24.096 58.17 15.538 15.54 36.198 24.098 58.172 24.098s42.634-8.558 58.172-24.098zM996.46 932.438c-22.208 22.208-59.762 31.27-108.577 26.186-84.618-8.798-195.727-57.898-304.842-134.709-60.88-42.858-140.815-108.247-220.817-200.141-23.338 12.548-48.95 19.844-76.332 21.686-8.246 0.496-15.418-5.696-15.972-13.96-0.556-8.266 5.694-15.418 13.96-15.974 20.82-1.4 40.388-6.53 58.396-15.248-25.85-31.174-51.544-65.14-76.436-102.071-35.57 17.446-77.236 19.058-124.113 4.722-41.464-12.682-76.676-35.028-93.975-47.22-0.824-0.578-1.954-0.474-2.68 0.254l-14.394 14.394c-0.756 0.756-0.848 1.97-0.212 2.766 60.248 75.166 131.919 124.409 201.807 138.657 8.118 1.654 13.356 9.576 11.702 17.694s-9.572 13.362-17.694 11.702c-76.746-15.644-154.603-68.664-219.223-149.291-10.23-12.762-9.196-31.136 2.406-42.738l14.396-14.396c6.234-6.232 14.444-9.432 22.712-9.432 6.422 0 12.878 1.93 18.466 5.87 26.35 18.572 114.087 73.646 185.327 41.118-5.928-16.738-2.012-35.956 10.91-48.878l0.932-0.932c-12.414-7.152-23.862-15.884-34.152-26.174-36.066-36.064-81.854-113.589-106.511-180.323-2.872-7.772 1.102-16.398 8.872-19.27 1.714-0.632 3.47-0.934 5.196-0.934 6.1 0 11.836 3.75 14.072 9.804 25.646 69.418 70.772 140.701 99.585 169.507 10.364 10.364 22.148 18.802 35.088 25.238l49.84-49.84-86.459-86.459c-7.102-7.102-11.014-16.542-11.014-26.588 0-10.042 3.912-19.484 11.012-26.588l27.158-27.158c7.33-7.33 16.958-10.994 26.588-10.994 9.628 0 19.258 3.664 26.588 10.994l86.461 86.461 49.84-49.84c-6.438-12.942-14.876-24.726-25.238-35.086-25.68-25.682-86.663-65.994-153.533-93.361-68.714-28.126-121.865-32.792-142.171-12.48-17.118 17.12-13.696 52.602-7.808 79.352 1.78 8.092-3.334 16.094-11.426 17.876-8.084 1.776-16.092-3.336-17.874-11.426-10.906-49.556-5.56-85.563 15.894-107.017 11.434-11.434 30.494-21.41 62.21-21.408 27.174 0.002 63.64 7.328 112.537 27.338 62.254 25.476 130.969 67.496 163.381 99.911 10.29 10.29 19.022 21.736 26.174 34.152l0.934-0.934c8.99-8.988 21.028-13.634 33.162-13.634 5.306 0 10.626 0.91 15.722 2.714 32.518-71.24-22.552-158.969-41.122-185.315-9.010-12.786-7.512-30.104 3.564-41.182l14.394-14.392c6.258-6.258 14.486-9.442 22.74-9.442 7.050 0 14.12 2.324 19.998 7.036 68.36 54.792 116.633 118.507 139.601 184.247 21.49 61.516 18.652 121.667-7.736 170.939 35.074 30.542 68.488 62.98 100.047 97.159 63.162 68.414 118.181 143.595 159.107 217.409 4.016 7.246 1.4 16.376-5.846 20.392-7.248 4.016-16.376 1.4-20.392-5.846-39.78-71.754-93.347-144.927-154.911-211.605-45.252-49.016-94.433-94.345-146.903-135.541l-97.165 97.167 22.582 22.582c14.658 14.66 14.658 38.512 0 53.172l-27.16 27.16c-7.102 7.102-16.544 11.012-26.586 11.012-10.044 0-19.486-3.91-26.588-11.012l-22.58-22.58-97.191 97.193c10.704 13.638 21.464 26.766 32.236 39.402 0.314 0.334 0.616 0.68 0.902 1.048 80.578 94.297 161.687 160.907 222.987 204.057 59.396 41.812 119.077 75.054 174.133 97.555l186.401-186.403c-3.57-8.764-7.402-17.664-11.532-26.692-3.448-7.534-0.134-16.434 7.398-19.882 7.53-3.446 16.434-0.134 19.88 7.4 5.748 12.562 10.948 24.856 15.656 36.882 0.102 0.24 0.192 0.484 0.282 0.728 40.262 103.167 42.168 185.219 3.926 223.461zM664.29 278.298c19.904-40.962 20.978-89.361 2.894-141.125-21.11-60.426-66.076-119.465-130.043-170.733-0.794-0.636-2.008-0.544-2.762 0.212l-14.392 14.39c-0.73 0.73-0.838 1.86-0.256 2.686 12.192 17.296 34.538 52.508 47.22 93.973 14.336 46.874 12.726 88.545-4.724 124.115 35.282 23.784 69.338 49.336 102.063 76.482zM594.859 261.77c-21.182-15.82-42.862-30.986-65.018-45.444-6.678-4.354-15.586-3.46-21.18 2.134l-14.348 14.35 64.754 64.754 35.792-35.794zM537.853 318.778l-64.754-64.752-37.358 37.358 64.752 64.754 37.36-37.36zM451.973 425.853c0.002 0.004 0.006 0.006 0.008 0.008s0.006 0.006 0.008 0.008l33.18 33.18c1.936 1.936 4.198 2.224 5.374 2.224 1.174 0 3.436-0.29 5.374-2.226l27.158-27.156c2.962-2.966 2.962-7.786 0-10.748l-216.221-216.219c-2.962-2.964-7.786-2.964-10.75 0l-27.158 27.158c-1.936 1.936-2.226 4.198-2.226 5.372s0.29 3.438 2.226 5.372l97.063 97.063c0.002 0.002 0.004 0.002 0.004 0.004 0.002 0.002 0.002 0.002 0.004 0.004l85.957 85.957zM420.16 436.469l-64.752-64.752-37.36 37.36 64.752 64.752 37.36-37.36zM361.588 495.043l-64.752-64.752-14.348 14.35c-5.594 5.594-6.494 14.502-2.136 21.18 0.998 1.53 2.010 3.020 3.012 4.542 0.012 0.018 0.026 0.034 0.036 0.052 0.004 0.006 0.006 0.012 0.010 0.018 13.892 21.084 28.060 41.208 42.39 60.402l35.788-35.792zM972.468 741.341l-167.217 167.215c30.752 10.616 59.656 17.518 85.733 20.23 39.524 4.104 68.666-1.962 84.262-17.562 26.44-26.438 24.69-90.277-2.778-169.883z" />
<glyph unicode="&#xe938;" d="M848 512h-192l48 112h144z" />
<glyph unicode="&#xe939;" d="M848 624v-112h-192l20.64 48h38.56c0.005 0 0.012 0 0.018 0 32.806 0 61.004 19.727 73.38 47.965l0.201 0.515 6.72 15.52z" />
<glyph unicode="&#xe93a;" d="M880 160h-736l-96 288h928z" />
<glyph unicode="&#xe93b;" d="M965.28 416h-821.28l15.84-31.84c9.83-19.215 29.483-32.143 52.158-32.16h600.482c32.154-0.050 58.201-26.127 58.201-58.288 0-2.012-0.102-3.999-0.301-5.958l0.020 0.246c-0.16-1.92-0.32-3.84-0.32-5.76 0-0.026 0-0.057 0-0.087 0-22.992 13.378-42.859 32.774-52.242l0.346-0.151-23.2-69.76h-736l-96 288h928z" />
<glyph unicode="&#xe93c;" d="M192 256v-80h64v80h224v-80h64v80h224v-80h64v80c0 35.346-28.654 64-64 64v0h-512c-35.346 0-64-28.654-64-64v0z" />
<glyph unicode="&#xe93d;" d="M832 224v-48h-64v80h-224v-80h-64v80h-224v-80h-64v80c0 35.346 28.654 64 64 64v0h32c0.054-17.651 14.349-31.946 31.995-32h448.005c17.651-0.054 31.946-14.349 32-31.995v-0.005c0.135-17.619 14.381-31.865 31.987-32h0.013z" />
<glyph unicode="&#xe93e;" d="M928 96c0-61.856-50.144-112-112-112s-112 50.144-112 112c0 61.856 50.144 112 112 112s112-50.144 112-112z" />
<glyph unicode="&#xe93f;" d="M924.32 67.68c-12.972-48.556-56.565-83.735-108.375-83.735-61.856 0-112 50.144-112 112 0 51.809 35.178 95.402 82.952 108.196l0.783 0.178c-2.337-8.461-3.68-18.177-3.68-28.206 0-0.040 0-0.080 0-0.12v0.006c0-61.856 50.144-112 112-112v0c0.034 0 0.074 0 0.114 0 10.029 0 19.745 1.343 28.977 3.859l-0.771-0.179z" />
<glyph unicode="&#xe940;" d="M864 96c0-26.51-21.49-48-48-48s-48 21.49-48 48c0 26.51 21.49 48 48 48s48-21.49 48-48z" />
<glyph unicode="&#xe941;" d="M856.96 71.040c-8.44-13.898-23.495-23.041-40.685-23.041-0.097 0-0.194 0-0.29 0.001h0.015c-26.51 0-48 21.49-48 48v0c-0.001 0.082-0.001 0.179-0.001 0.275 0 17.19 9.143 32.244 22.831 40.566l0.21 0.119c11.481-30.669 35.251-54.439 65.155-65.668l0.765-0.252z" />
<glyph unicode="&#xe942;" d="M624 96c0-61.856-50.144-112-112-112s-112 50.144-112 112c0 61.856 50.144 112 112 112s112-50.144 112-112z" />
<glyph unicode="&#xe943;" d="M620.32 67.68c-12.972-48.556-56.565-83.735-108.375-83.735-61.856 0-112 50.144-112 112 0 51.809 35.178 95.402 82.952 108.196l0.783 0.178c-2.337-8.461-3.68-18.177-3.68-28.206 0-0.040 0-0.080 0-0.12v0.006c0-61.856 50.144-112 112-112v0c0.034 0 0.074 0 0.114 0 10.029 0 19.745 1.343 28.977 3.859l-0.771-0.179z" />
<glyph unicode="&#xe944;" d="M560 96c0-26.51-21.49-48-48-48s-48 21.49-48 48c0 26.51 21.49 48 48 48s48-21.49 48-48z" />
<glyph unicode="&#xe945;" d="M552.96 71.040c-8.44-13.898-23.495-23.041-40.685-23.041-0.097 0-0.194 0-0.29 0.001h0.015c-26.51 0-48 21.49-48 48v0c-0.001 0.082-0.001 0.179-0.001 0.275 0 17.19 9.143 32.244 22.831 40.566l0.21 0.119c11.481-30.669 35.251-54.439 65.155-65.668l0.765-0.252z" />
<glyph unicode="&#xe946;" d="M320 96c0-61.856-50.144-112-112-112s-112 50.144-112 112c0 61.856 50.144 112 112 112s112-50.144 112-112z" />
<glyph unicode="&#xe947;" d="M316.32 67.68c-12.972-48.556-56.565-83.735-108.375-83.735-61.856 0-112 50.144-112 112 0 51.809 35.178 95.402 82.952 108.196l0.783 0.178c-2.337-8.461-3.68-18.177-3.68-28.206 0-0.040 0-0.080 0-0.12v0.006c0-61.856 50.144-112 112-112v0c0.034 0 0.074 0 0.114 0 10.029 0 19.745 1.343 28.977 3.859l-0.771-0.179z" />
<glyph unicode="&#xe948;" d="M256 96c0-26.51-21.49-48-48-48s-48 21.49-48 48c0 26.51 21.49 48 48 48s48-21.49 48-48z" />
<glyph unicode="&#xe949;" d="M248.96 71.040c-8.44-13.898-23.495-23.041-40.685-23.041-0.097 0-0.194 0-0.29 0.001h0.015c-26.51 0-48 21.49-48 48v0c-0.001 0.082-0.001 0.179-0.001 0.275 0 17.19 9.143 32.244 22.831 40.566l0.21 0.119c11.481-30.669 35.251-54.439 65.155-65.668l0.765-0.252z" />
<glyph unicode="&#xe94a;" d="M944 512h-864l-32-64h928z" />
<glyph unicode="&#xe94b;" d="M976 448h-928l32 64h51.68c0.073-17.689 14.429-32 32.128-32 0.011 0 0.023 0 0.034 0h796.158z" />
<glyph unicode="&#xe94c;" d="M147.888 766.864l-67.888 90.512 22.624 22.624 90.512-67.888z" />
<glyph unicode="&#xe94d;" d="M193.12 812.16l-45.28-45.28-67.84 90.56 22.56 22.56 7.84-5.76c0.977-3.055 1.559-6.572 1.6-10.219v-0.021c-0.001-4.831-1.123-9.399-3.12-13.459l0.080 0.179 0.48-0.64c10.205-13.547 26.26-22.214 44.34-22.214 5.523 0 10.858 0.809 15.891 2.315l-0.392-0.101z" />
<glyph unicode="&#xe94e;" d="M320 512h-96l16 208 48 32z" />
<glyph unicode="&#xe94f;" d="M320 512h-96l16 208 48 32 8.48-64.16c-6.797-12.302-14.826-22.881-24.153-32.153l-0.007-0.007c-3.77-3.849-7.791-7.414-12.051-10.682l-0.269-0.198v-1.12c-0.090-1.102-0.141-2.385-0.141-3.68 0-26.503 21.48-47.989 47.98-48h1.441z" />
<glyph unicode="&#xe950;" d="M272.336 891.312c26.059-26.059 42.177-62.059 42.177-101.824 0-79.529-64.471-144.001-144.001-144.001-39.765 0-75.765 16.118-101.824 42.177v0z" />
<glyph unicode="&#xe951;" d="M112 880c0-17.673-14.327-32-32-32s-32 14.327-32 32c0 17.673 14.327 32 32 32s32-14.327 32-32z" />
<glyph unicode="&#xe952;" d="M304 576h-64c-35.346 0-64-28.654-64-64v0h192c0 35.346-28.654 64-64 64v0z" />
<glyph unicode="&#xe953;" d="M314.56 787.52c-1.185-78.672-65.238-141.993-144.081-141.993-39.765 0-75.768 16.108-101.84 42.154l0.001-0.001 42.88 42.88c21.351-13.186 47.234-20.999 74.941-20.999 55.445 0 103.583 31.287 127.721 77.169l0.378 0.789z" />
<glyph unicode="&#xe954;" d="M368 512h-192c0 0.023 0 0.051 0 0.079 0 25.613 15.102 47.698 36.887 57.837l0.393 0.164c8.099-15.604 24.133-26.080 42.615-26.080 0.037 0 0.074 0 0.111 0h103.354c5.42-9.172 8.627-20.21 8.64-31.996v-0.004z" />
<glyph unicode="&#xe955;" d="M112 880c0-0.016 0-0.036 0-0.055 0-17.673-14.327-32-32-32s-32 14.327-32 32c0 11.912 6.508 22.303 16.163 27.812l0.157 0.083c2.161-15.759 15.508-27.778 31.674-27.84h0.006c0.079-0.001 0.173-0.001 0.267-0.001 5.679 0 10.996 1.546 15.555 4.239l-0.143-0.078c0.181-1.231 0.297-2.671 0.32-4.133v-0.027z" />
<glyph unicode="&#xe956;" d="M944 736h-80l-80-224h160z" />
<glyph unicode="&#xe957;" d="M400 912h256v-192h-256z" />
<glyph unicode="&#xe958;" d="M656 768v-48h-256v192h32v-16c0-70.692 57.308-128 128-128v0z" />
<glyph unicode="&#xe959;" d="M480 576h96v-64h-96z" />
<glyph unicode="&#xe95a;" d="M496 720h64v-144h-64z" />
<glyph unicode="&#xe95b;" d="M592 816c0-17.673-14.327-32-32-32s-32 14.327-32 32c0 17.673 14.327 32 32 32s32-14.327 32-32z" />
<glyph unicode="&#xe95c;" d="M528 704v-64c0.054-17.651 14.349-31.946 31.995-32h0.005v-32h-64v144h64v-16z" />
<glyph unicode="&#xe95d;" d="M576 544v-32h-96v64h16c0.054-17.651 14.349-31.946 31.995-32h0.005z" />
<glyph unicode="&#xe95e;" d="M582.624 793.376c-5.749-5.558-13.59-8.983-22.231-8.983-17.673 0-32 14.327-32 32 0 8.641 3.425 16.482 8.991 22.24l-0.009-0.009z" />
<glyph unicode="&#xe95f;" d="M976 448h-928l21.328-64h885.344z" />
<glyph unicode="&#xe960;" d="M159.936 384l-0.096 0.16-15.84 31.84h821.28l10.72 32h-928l21.328-64z" />
<glyph unicode="&#xe961;" d="M944 544v-32h-160l80 224h36.64l-45.76-127.84c-1.775-4.81-2.802-10.365-2.802-16.16 0-26.51 21.49-48 48-48 0.029 0 0.058 0 0.087 0h-0.005z" />
<glyph unicode="&#xe962;" d="M990.304 455.152l-32 64c-2.684 5.285-8.078 8.845-14.304 8.848h-137.296l68.576 192h52.72v-144c0-8.837 7.163-16 16-16s16 7.163 16 16v0 160c0 8.837-7.163 16-16 16v0h-80c-6.903-0.006-12.783-4.383-15.021-10.513l-0.035-0.111-36.144-101.376h-108.8c-6.558-0.001-12.194-3.946-14.664-9.593l-0.040-0.103-43.84-102.304h-53.456v48c0 8.837-7.163 16-16 16v0 112h112c8.837 0 16 7.163 16 16s-7.163 16-16 16v0h-272v160h224v-112c0-8.837 7.163-16 16-16s16 7.163 16 16v0 128c0 8.837-7.163 16-16 16v0h-256c-8.837 0-16-7.163-16-16v0-176h-16c-8.837 0-16-7.163-16-16s7.163-16 16-16v0h112v-112c-8.837 0-16-7.163-16-16v0-64c0-8.837 7.163-16 16-16v0h454.112l16-32h-310.112c-8.837 0-16-7.163-16-16s7.163-16 16-16v0h313.792l-74.88-224.656c-8.89 5.122-19.173 9.382-30.023 12.248l-0.889 0.2v36.208c-0.055 44.161-35.839 79.945-79.995 80h-112.005c-8.837 0-16-7.163-16-16s7.163-16 16-16v0h112c26.51 0 48-21.49 48-48v0-32c-11.394-0.042-22.411-1.575-32.891-4.414l0.891 0.206v36.208c0 8.837-7.163 16-16 16v0h-224c-8.837 0-16-7.163-16-16v0-33.104c-4.807 0.703-10.357 1.104-16 1.104s-11.193-0.401-16.622-1.177l0.622 0.073v33.104c0 8.837-7.163 16-16 16v0h-224c-8.837 0-16-7.163-16-16v0-36.208c-9.589 2.633-20.606 4.166-31.975 4.208h-0.025v32c0 26.51 21.49 48 48 48v0h336c8.837 0 16 7.163 16 16s-7.163 16-16 16v0h-336c-44.161-0.055-79.945-35.839-80-79.995v-36.213c-11.739-3.066-22.022-7.326-31.535-12.777l0.623 0.329-53.552 160.656h799.136c8.837 0 16 7.163 16 16s-7.163 16-16 16v0h-809.808l-15.584 46.768 24.608 49.232h326.112c8.837 0 16 7.163 16 16s-7.163 16-16 16v0h-33.6c-6.288 29.273-27.929 52.276-55.899 60.419l-0.565 0.141-16.288 122.224c13.028 22.659 20.713 49.822 20.713 78.78 0 44.131-17.847 84.094-46.717 113.064l0.005-0.005c-2.943 2.787-6.927 4.501-11.312 4.501s-8.369-1.714-11.32-4.509l0.008 0.007-69.392-69.376-63.744 47.792c-0.526 26.103-21.811 47.063-47.991 47.063-26.51 0-48-21.49-48-48 0-26.18 20.959-47.465 47.014-47.99l0.049-0.001 47.792-63.76-69.376-69.376c-2.894-2.895-4.685-6.895-4.685-11.312s1.79-8.417 4.685-11.312v0c13.49-13.454 29.391-24.498 46.998-32.428l1.002-0.404c2.024-0.993 4.404-1.574 6.921-1.574 8.837 0 16 7.163 16 16 0 6.635-4.039 12.327-9.791 14.751l-0.105 0.039c-10.025 4.514-18.661 9.744-26.569 15.869l0.297-0.221 179.504 179.6c16.794-21.431 26.931-48.779 26.931-78.494 0-69.404-55.3-125.893-124.242-127.806l-0.177-0.004c-8.744-0.122-15.785-7.239-15.785-16 0-8.837 7.164-16.001 16.001-16.001 0.076 0 0.152 0.001 0.227 0.002h0.453c15.355 0.492 29.929 3.060 43.699 7.432l-1.139-0.312-3.856-49.6c-26.426-9.334-46.178-31.424-52.049-58.674l-0.095-0.526h-81.6c-0.002 0-0.005 0-0.007 0-6.23 0-11.628-3.56-14.271-8.757l-0.042-0.091-32-64c-1.057-2.078-1.676-4.531-1.676-7.128 0-1.817 0.303-3.564 0.861-5.192l-0.034 0.113 85.296-256c-23.545-23.225-38.13-55.482-38.13-91.145 0-70.692 57.308-128 128-128s128 57.308 128 128c0 17.376-3.462 33.943-9.734 49.049l0.312-0.848h66.848c-5.961-14.259-9.424-30.828-9.424-48.205 0-70.692 57.308-128 128-128s128 57.308 128 128c0 17.377-3.463 33.946-9.736 49.053l0.312-0.848h66.848c-5.951-14.249-9.408-30.804-9.408-48.166 0-70.692 57.308-128 128-128s128 57.308 128 128c0 35.678-14.597 67.946-38.145 91.159l-0.015 0.015 85.312 256c0.513 1.499 0.809 3.226 0.809 5.022 0 2.595-0.618 5.046-1.714 7.214l0.042-0.091zM714.544 608h86.752l-28.496-80h-92.48zM512 704h32v-112h-32zM496 528v32h64v-32zM64 880c0 8.837 7.163 16 16 16s16-7.163 16-16c0-8.837-7.163-16-16-16v0c-8.837 0-16 7.163-16 16v0zM110.56 843.296c2.255 1.881 4.267 3.898 6.082 6.084l0.062 0.076 52.080-39.072-19.2-19.2zM282.128 674.976l11.056-82.976h-46.976l4.56 59.2c11.902 6.962 22.188 14.834 31.394 23.809l-0.034-0.033zM240 560h64c20.769-0.026 38.451-13.212 45.158-31.665l0.106-0.335h-154.528c6.813 18.788 24.495 31.974 45.261 32h0.003zM871.536 174.16l-23.232-23.232c-4.692 2.842-10.117 5.17-15.867 6.701l-0.437 0.099v32.832c15.030-2.592 28.374-8.356 39.819-16.594l-0.283 0.194zM816 64c-17.673 0-32 14.327-32 32s14.327 32 32 32c17.673 0 32-14.327 32-32v0c0-17.673-14.327-32-32-32v0zM800 157.728c-6.187-1.63-11.612-3.958-16.585-6.957l0.281 0.157-23.232 23.232c11.161 8.046 24.506 13.811 38.968 16.318l0.568 0.082zM737.84 151.536l23.232-23.232c-2.842-4.692-5.17-10.117-6.701-15.867l-0.099-0.437h-32.832c2.592 15.030 8.356 28.374 16.594 39.819l-0.194-0.283zM754.272 80c1.63-6.187 3.958-11.612 6.957-16.585l-0.157 0.281-23.232-23.232c-8.044 11.162-13.808 24.506-16.318 38.967l-0.082 0.569zM783.696 41.072c4.692-2.842 10.117-5.17 15.867-6.701l0.437-0.099v-32.832c-15.030 2.589-28.375 8.354-39.819 16.594l0.283-0.194zM832 34.272c6.187 1.63 11.612 3.958 16.585 6.957l-0.281-0.157 23.232-23.232c-11.162-8.044-24.506-13.808-38.967-16.318l-0.569-0.082zM870.928 63.696c2.835 4.692 5.162 10.116 6.699 15.862l0.101 0.442h32.832c-2.592-15.030-8.356-28.374-16.594-39.819l0.194 0.283zM877.728 112c-1.638 6.188-3.965 11.612-6.959 16.589l0.159-0.285 23.232 23.232c8.044-11.162 13.808-24.506 16.318-38.967l0.082-0.569zM544 96c0-17.673-14.327-32-32-32s-32 14.327-32 32c0 17.673 14.327 32 32 32v0c17.673 0 32-14.327 32-32v0zM496 190.56v-32.832c-6.187-1.63-11.612-3.958-16.585-6.957l0.281 0.157-23.232 23.232c11.161 8.046 24.506 13.811 38.968 16.318l0.568 0.082zM433.84 151.536l23.232-23.232c-2.842-4.692-5.17-10.117-6.701-15.867l-0.099-0.437h-32.832c2.592 15.030 8.356 28.374 16.594 39.819l-0.194-0.283zM450.272 80c1.63-6.187 3.958-11.612 6.957-16.585l-0.157 0.281-23.232-23.232c-8.044 11.162-13.808 24.506-16.318 38.967l-0.082 0.569zM479.696 41.072c4.692-2.842 10.117-5.17 15.867-6.701l0.437-0.099v-32.832c-15.030 2.589-28.375 8.354-39.819 16.594l0.283-0.194zM528 34.272c6.187 1.63 11.612 3.958 16.585 6.957l-0.281-0.157 23.232-23.232c-11.162-8.044-24.506-13.808-38.967-16.318l-0.569-0.082zM566.928 63.696c2.835 4.692 5.162 10.116 6.699 15.862l0.101 0.442h32.832c-2.592-15.030-8.356-28.374-16.594-39.819l0.194 0.283zM573.728 112c-1.638 6.188-3.965 11.612-6.959 16.589l0.159-0.285 23.232 23.232c8.044-11.162 13.808-24.506 16.318-38.967l0.082-0.569zM544.304 150.928c-4.692 2.842-10.117 5.17-15.867 6.701l-0.437 0.099v32.832c15.030-2.592 28.374-8.356 39.819-16.594l-0.283 0.194zM240 96c0-17.673-14.327-32-32-32s-32 14.327-32 32c0 17.673 14.327 32 32 32v0c17.673 0 32-14.327 32-32v0zM192 190.56v-32.832c-6.187-1.63-11.612-3.958-16.585-6.957l0.281 0.157-23.232 23.232c11.161 8.046 24.506 13.811 38.968 16.318l0.568 0.082zM153.072 128.304c-2.842-4.692-5.17-10.117-6.701-15.867l-0.099-0.437h-32.832c2.592 15.030 8.356 28.374 16.594 39.819l-0.194-0.283zM146.272 80c1.63-6.187 3.958-11.612 6.957-16.585l-0.157 0.281-23.232-23.232c-8.044 11.162-13.808 24.506-16.318 38.967l-0.082 0.569zM175.696 41.072c4.692-2.842 10.117-5.17 15.867-6.701l0.437-0.099v-32.832c-15.030 2.589-28.375 8.354-39.819 16.594l0.283-0.194zM224 34.272c6.187 1.63 11.612 3.958 16.585 6.957l-0.281-0.157 23.232-23.232c-11.162-8.044-24.506-13.808-38.967-16.318l-0.569-0.082zM262.928 63.696c2.835 4.692 5.162 10.116 6.699 15.862l0.101 0.442h32.832c-2.592-15.030-8.356-28.374-16.594-39.819l0.194 0.283zM269.728 112c-1.638 6.188-3.965 11.612-6.959 16.589l0.159-0.285 23.232 23.232c8.044-11.162 13.808-24.506 16.318-38.967l0.082-0.569zM240.304 150.928c-4.692 2.842-10.117 5.17-15.867 6.701l-0.437 0.099v32.832c15.030-2.592 28.374-8.356 39.819-16.594l-0.283 0.194zM307.76 176c-9.914 12.253-21.759 22.477-35.156 30.344l-0.604 0.328v33.328h192v-25.424c-20.792-8.604-38.195-21.773-51.569-38.332l-0.191-0.244zM611.76 176c-13.565 16.803-30.968 29.972-50.909 38.262l-0.851 0.314v25.424h192v-33.328c-14.001-8.195-25.846-18.419-35.571-30.431l-0.189-0.241z" />
<glyph unicode="&#xe963;" d="M512 816c0-26.51 21.49-48 48-48s48 21.49 48 48c0 26.51-21.49 48-48 48v0c-26.51 0-48-21.49-48-48v0zM576 816c0-8.837-7.163-16-16-16s-16 7.163-16 16c0 8.837 7.163 16 16 16v0c8.837 0 16-7.163 16-16v0z" />
<glyph unicode="&#xe964;" d="M96 448c0-8.837 7.163-16 16-16v0h464c8.837 0 16 7.163 16 16s-7.163 16-16 16v0h-464c-8.837 0-16-7.163-16-16v0z" />
<glyph unicode="&#xe965;" d="M149.32 563.722c0-41.234-33.426-74.66-74.66-74.66s-74.66 33.426-74.66 74.66c0 41.234 33.426 74.66 74.66 74.66s74.66-33.426 74.66-74.66z" />
<glyph unicode="&#xe966;" d="M99.768 588.842c0-13.867-11.241-25.108-25.108-25.108s-25.108 11.241-25.108 25.108c0 13.867 11.241 25.108 25.108 25.108s25.108-11.241 25.108-25.108z" />
<glyph unicode="&#xe967;" d="M1004.384 374.708h-942.382c-10.834 0-19.616-8.782-19.616-19.616v-79.18c0-10.834 8.782-19.616 19.616-19.616h942.38c10.834 0 19.616 8.782 19.616 19.616v79.18c0.002 10.836-8.78 19.616-19.614 19.616z" />
<glyph unicode="&#xe968;" d="M1004.382 374.708h-18.384v-65.324c0-10.834-8.782-19.616-19.616-19.616h-923.996v-13.858c0-10.834 8.782-19.616 19.616-19.616h942.38c10.834 0 19.618 8.782 19.618 19.616v79.18c0 10.838-8.782 19.618-19.618 19.618z" />
<glyph unicode="&#xe969;" d="M349.52 193c0-67.909-55.051-122.96-122.96-122.96s-122.96 55.051-122.96 122.96c0 67.909 55.051 122.96 122.96 122.96s122.96-55.051 122.96-122.96z" />
<glyph unicode="&#xe96a;" d="M305.79 286.98c15.592-20.608 24.852-46.272 24.852-74.106 0-67.904-55.046-122.95-122.95-122.95-30.196 0-57.834 10.904-79.236 28.966 22.446-29.666 58.028-48.844 98.098-48.844 67.904 0 122.95 55.046 122.95 122.95 0 37.708-16.99 71.432-43.714 93.984z" />
<glyph unicode="&#xe96b;" d="M287.476 193c0-33.643-27.273-60.916-60.916-60.916s-60.916 27.273-60.916 60.916c0 33.643 27.273 60.916 60.916 60.916s60.916-27.273 60.916-60.916z" />
<glyph unicode="&#xe96c;" d="M962.8 193c0-67.909-55.051-122.96-122.96-122.96s-122.96 55.051-122.96 122.96c0 67.909 55.051 122.96 122.96 122.96s122.96-55.051 122.96-122.96z" />
<glyph unicode="&#xe96d;" d="M919.068 286.98c15.592-20.608 24.852-46.272 24.852-74.106 0-67.904-55.046-122.95-122.95-122.95-30.196 0-57.834 10.904-79.236 28.966 22.446-29.666 58.028-48.844 98.098-48.844 67.904 0 122.952 55.046 122.952 122.95 0 37.708-16.992 71.432-43.716 93.984z" />
<glyph unicode="&#xe96e;" d="M900.756 193c0-33.643-27.273-60.916-60.916-60.916s-60.916 27.273-60.916 60.916c0 33.643 27.273 60.916 60.916 60.916s60.916-27.273 60.916-60.916z" />
<glyph unicode="&#xe96f;" d="M656.16 193c0-67.909-55.051-122.96-122.96-122.96s-122.96 55.051-122.96 122.96c0 67.909 55.051 122.96 122.96 122.96s122.96-55.051 122.96-122.96z" />
<glyph unicode="&#xe970;" d="M612.428 286.98c15.592-20.608 24.852-46.272 24.852-74.106 0-67.904-55.048-122.95-122.95-122.95-30.196 0-57.834 10.904-79.236 28.966 22.446-29.666 58.028-48.844 98.098-48.844 67.904 0 122.95 55.046 122.95 122.95 0.002 37.708-16.99 71.432-43.714 93.984z" />
<glyph unicode="&#xe971;" d="M594.116 193c0-33.643-27.273-60.916-60.916-60.916s-60.916 27.273-60.916 60.916c0 33.643 27.273 60.916 60.916 60.916s60.916-27.273 60.916-60.916z" />
<glyph unicode="&#xe972;" d="M1000.208 499.758h-481.888c-13.14 0-23.792 10.652-23.792 23.792v278.618c0 13.14 10.652 23.792 23.792 23.792h481.888c13.14 0 23.792-10.652 23.792-23.792v-278.618c0-13.142-10.652-23.792-23.792-23.792z" />
<glyph unicode="&#xe973;" d="M1000.208 825.958h-3.464v-275.154c0-13.14-10.652-23.792-23.792-23.792h-478.424v-3.464c0-13.14 10.652-23.792 23.792-23.792h481.888c13.14 0 23.792 10.652 23.792 23.792v278.618c0 13.14-10.652 23.792-23.792 23.792z" />
<glyph unicode="&#xe974;" d="M554.364 569.846v186.024c0 5.662 4.59 10.252 10.252 10.252h389.296c5.662 0 10.252-4.59 10.252-10.252v-186.024c0-5.662-4.59-10.252-10.252-10.252h-389.296c-5.662 0-10.252 4.59-10.252 10.252z" />
<glyph unicode="&#xe975;" d="M812.56 766.122h30v-206.52h-30v206.52z" />
<glyph unicode="&#xe976;" d="M675.96 766.122h30v-206.52h-30v206.52z" />
<glyph unicode="&#xe977;" d="M389.776 455.79h-286.968c-15.548 0-28.15 12.604-28.15 28.15v159.572c0 15.548 12.604 28.15 28.15 28.15h286.968c15.548 0 28.15-12.604 28.15-28.15v-159.572c0-15.546-12.602-28.15-28.15-28.15z" />
<glyph unicode="&#xe978;" d="M389.776 671.662h-7.010v-152.562c0-15.548-12.604-28.15-28.15-28.15h-279.958v-7.010c0-15.548 12.604-28.15 28.15-28.15h286.968c15.548 0 28.152 12.604 28.152 28.15v159.572c0 15.548-12.604 28.15-28.152 28.15z" />
<glyph unicode="&#xe979;" d="M216.52 455.782h91.6v-81.080h-91.6v81.080z" />
<glyph unicode="&#xe97a;" d="M216.526 455.79v-24.946h68.93v-56.136h22.67v81.082z" />
<glyph unicode="&#xe97b;" d="M616.44 499.762h74.52v-125.040h-74.52v125.040z" />
<glyph unicode="&#xe97c;" d="M616.44 499.758v-29.392h49.87v-95.658h24.654v125.050z" />
<glyph unicode="&#xe97d;" d="M827.56 499.762h74.52v-125.040h-74.52v125.040z" />
<glyph unicode="&#xe97e;" d="M827.564 499.758v-29.392h49.87v-95.658h24.654v125.050z" />
<glyph unicode="&#xe97f;" d="M223.346 579.58c0-20.14-16.326-36.466-36.466-36.466s-36.466 16.326-36.466 36.466c0 20.14 16.326 36.466 36.466 36.466s36.466-16.326 36.466-36.466z" />
<glyph unicode="&#xe980;" d="M358.386 579.58c0-20.14-16.326-36.466-36.466-36.466s-36.466 16.326-36.466 36.466c0 20.14 16.326 36.466 36.466 36.466s36.466-16.326 36.466-36.466z" />
<glyph unicode="&#xe981;" d="M454.862 334.166c-8.284 0-15 6.716-15 15v113.588c0 12.132-9.872 22.004-22.004 22.004h-85.472c-8.284 0-15 6.714-15 15s6.716 15 15 15h85.472c28.674 0 52.004-23.328 52.004-52.004v-113.588c0-8.286-6.716-15-15-15z" />
<glyph unicode="&#xe982;" d="M1024 448c0-282.77-229.23-512-512-512s-512 229.23-512 512c0 282.77 229.23 512 512 512s512-229.23 512-512z" />
<glyph unicode="&#xe983;" d="M234.283 459.093l493.653 190.336c22.912 8.277 42.923-5.589 35.499-40.235l0.043 0.043-84.053-395.989c-6.229-28.075-22.912-34.901-46.251-21.675l-128 94.336-61.739-59.477c-6.827-6.827-12.587-12.587-25.813-12.587l9.088 130.261 237.227 214.315c10.325 9.088-2.304 14.208-15.915 5.163l-293.163-184.576-126.379 39.424c-27.435 8.704-28.032 27.435 5.803 40.661z" />
<glyph unicode="&#xe984;" d="M277.333 384l-256 128 981.333 384-170.667-853.333-298.667 170.667-128-170.667v298.667l384 341.333z" />
<glyph unicode="&#xe985;" d="M17.707 482.304l250.411-124.8c9.685-4.779 21.12-4.437 30.379 0.981l222.891 129.579-134.912-119.552c-6.869-6.101-10.795-14.805-10.795-23.979v-291.2c0-30.72 39.211-43.648 57.6-19.243l108.245 143.915 267.691-152.448c18.773-10.795 42.837 0.043 47.189 21.504l166.955 832c4.992 25.003-19.883 45.397-43.008 36.096l-960-374.4c-25.771-10.069-27.435-46.123-2.645-58.453zM949.12 834.261l-146.731-731.179-253.653 144.469c-13.824 7.893-31.616 4.395-41.429-8.576l-67.627-89.899v181.077l364.843 323.243c28.885 25.557-4.309 70.997-37.291 51.627l-485.973-282.539-170.325 84.864z" />
<glyph unicode="&#xe986;" glyph-name="comet1" d="M223.396 159.8c28.714-28.716 71.994-33.53 106.066-15.252 34.072-18.276 77.352-13.462 106.066 15.252 35.092 35.092 35.092 92.186 0 127.28-16.358 16.358-37.518 24.766-58.978 25.874-1.108 21.462-9.516 42.62-25.874 58.978-35.094 35.092-92.186 35.092-127.28 0-28.714-28.714-33.528-71.994-15.252-106.066-18.278-34.072-13.464-77.35 15.252-106.066zM965.038 773.748c-68.032-68.032-168.202-235.82-245.764-378.76-70.912-130.656-144.204-265.766-198.5-320.062-105.278-105.278-276.558-105.278-381.838 0-105.278 105.28-105.278 276.558 0 381.838 54.296 54.296 189.406 127.59 320.062 198.5 142.94 77.56 310.73 177.732 378.76 245.762 11.726 11.726 11.726 30.702 0 42.426s-30.702 11.726-42.426 0c-61.878-61.876-225.772-159.934-364.922-235.444-140.64-76.298-273.45-148.368-333.9-208.816-128.666-128.668-128.666-338.024 0-466.692 128.668-128.666 338.024-128.666 466.69 0 60.45 60.45 132.52 193.26 208.818 333.902 75.51 139.15 173.568 303.042 235.446 364.922 11.726 11.724 11.726 30.702 0 42.426s-30.702 11.724-42.426-0.002zM428.692 553.322c5.35-15.908 22.42-24.144 37.932-18.956 7.172 2.382 124.322 42.572 278.192 146.438-103.868-153.872-144.056-271.020-146.438-278.192-5.19-15.63 3.144-32.626 18.976-37.952 15.724-5.242 32.71 3.252 37.952 18.976 0.828 2.486 113.188 278.436 359.894 525.142 11.726 11.726 11.726 30.702 0 42.426s-30.702 11.726-42.426 0c-246.002-246.002-522.66-359.104-525.146-359.932-15.706-5.26-24.2-22.248-18.936-37.95zM518.684 357.51c-3.818 8.058-11.456 13.998-19.94 15.698-8.486 2.546-17.396 0.424-24.608-4.244-11.88-8.484-28.426-7.212-38.608 2.97-9.76 9.76-11.030 26.304-2.548 38.184 4.668 7.212 6.79 16.122 4.244 24.608-1.7 8.482-7.636 16.12-15.698 19.94-80.184 39.46-176.916 23.334-240.554-40.304-81.882-81.882-81.46-215.524 0-296.984 81.882-81.882 215.102-81.882 296.984 0 63.64 63.638 80.186 159.946 40.728 240.132zM265.824 287.082c-11.456 11.456-11.456 30.97 0 42.426 11.878 11.878 30.97 11.456 42.426 0 11.878-11.878 11.878-30.548 0-42.426-11.456-11.456-30.548-11.878-42.426 0zM265.824 202.23c-11.456 11.456-11.456 30.97 0 42.426 11.878 11.878 30.97 11.456 42.426 0 11.878-11.878 11.878-30.548 0-42.426-11.456-11.456-30.548-11.878-42.426 0zM350.678 202.23c-11.456 11.456-11.456 30.97 0 42.426 11.878 11.878 30.97 11.456 42.426 0 11.878-11.878 11.878-30.548 0-42.426-11.456-11.456-30.548-11.878-42.426 0z" />
<glyph unicode="&#xe987;" d="M64 890.325c-80.469-83.584-64-172.373-64-442.112 0-224-39.083-448.555 165.461-501.419 63.872-16.427 629.803-16.427 693.589 0.085 85.163 21.973 154.453 91.051 163.925 211.499 1.323 16.811 1.323 562.56-0.043 579.712-10.069 128.299-89.045 202.24-193.109 217.216-23.851 3.456-28.629 4.48-150.997 4.693-434.048-0.213-529.195 19.115-614.827-69.675z" />
<glyph unicode="&#xe988;" d="M511.915 826.069c-154.923 0-302.037 13.781-358.229-130.432-23.211-59.563-19.84-136.917-19.84-247.68 0-97.195-3.115-188.544 19.84-247.637 56.064-144.299 204.373-130.475 358.144-130.475 148.352 0 301.312-15.445 358.187 130.475 23.253 60.16 19.84 136.363 19.84 247.637 0 147.712 8.149 243.072-63.488 314.667-72.533 72.533-170.624 63.445-314.624 63.445zM478.037 757.931c323.157 0.512 364.288 36.437 341.589-462.635-8.064-176.512-142.464-157.141-307.669-157.141-301.227 0-309.888 8.619-309.888 309.973 0 304.853 23.893 309.632 275.968 309.888zM713.728 695.168c-25.045 0-45.355-20.309-45.355-45.355s20.309-45.355 45.355-45.355 45.355 20.309 45.355 45.355-20.309 45.355-45.355 45.355zM511.915 642.133c-107.221 0-194.133-86.955-194.133-194.176s86.912-194.133 194.133-194.133 194.091 86.912 194.091 194.133-86.869 194.176-194.091 194.176zM511.915 573.995c166.613 0 166.827-252.075 0-252.075-166.571 0-166.827 252.075 0 252.075z" />
<glyph unicode="&#xe989;" d="M512.171 938.667c-258.347 0-307.755 6.741-372.352-25.472-59.477-29.611-102.187-85.632-113.024-160.683-3.328-22.912-4.267-27.605-4.48-144.853-0.853-433.536-6.571-465.92 24.576-530.517 25.899-53.888 75.392-94.379 133.717-109.483 46.635-12.032 77.653-10.325 330.539-10.325 211.968 0 277.888-3.797 332.885 10.411 58.667 15.189 107.264 55.040 133.717 109.696 31.403 64.939 24.021 110.848 24.021 370.859 0 249.003 8.405 304.427-24.533 371.584-11.264 22.912-23.765 40.064-41.899 57.557-73.728 70.571-161.536 61.013-263.723 61.227h-159.445z" />
<glyph unicode="&#xe98a;" d="M512 211.755c-130.261 0-236.245 105.984-236.245 236.245s105.984 236.245 236.245 236.245 236.245-105.984 236.245-236.245-105.984-236.245-236.245-236.245z" />
<glyph unicode="&#xe98b;" d="M783.317 682.069c-20.523 0-37.248 16.683-37.248 37.248s16.683 37.248 37.248 37.248 37.248-16.683 37.248-37.248-16.725-37.248-37.248-37.248z" />
<glyph unicode="&#xe98c;" d="M202.667-64h618.667c111.744 0 202.667 90.923 202.667 202.667v618.667c0 111.744-90.923 202.667-202.667 202.667h-618.667c-111.744 0-202.667-90.923-202.667-202.667v-618.667c0-111.744 90.923-202.667 202.667-202.667zM64 757.333c0 76.459 62.208 138.667 138.667 138.667h618.667c76.459 0 138.667-62.208 138.667-138.667v-618.667c0-76.459-62.208-138.667-138.667-138.667h-618.667c-76.459 0-138.667 62.208-138.667 138.667z" />
<glyph unicode="&#xe98d;" d="M512 186.453c144.213 0 261.547 117.333 261.547 261.547s-117.333 261.547-261.547 261.547-261.547-117.333-261.547-261.547 117.333-261.547 261.547-261.547zM512 645.547c108.928 0 197.547-88.619 197.547-197.547s-88.619-197.547-197.547-197.547-197.547 88.619-197.547 197.547 88.619 197.547 197.547 197.547z" />
<glyph unicode="&#xe98e;" d="M783.275 645.888c42.069 0 73.771 31.573 73.771 73.429 0 43.648-33.365 73.429-73.728 73.429-42.069 0-73.771-31.573-73.771-73.429 0-43.563 33.195-73.429 73.728-73.429zM790.827 726.357c13.483-11.904-17.28-26.368-17.28-7.083 0 11.52 15.659 8.533 17.28 7.083z" />
<glyph unicode="&#xe98f;" glyph-name="computer" d="M512 630.146c14.828 0 28.868 7.184 37.554 19.22 4.85 6.718 3.334 16.094-3.382 20.942-6.712 4.85-16.092 3.334-20.942-3.382-3.11-4.308-7.932-6.778-13.23-6.778-5.3 0-10.124 2.472-13.234 6.782-4.844 6.718-14.222 8.238-20.94 3.39-6.718-4.846-8.236-14.222-3.39-20.94 8.686-12.044 22.73-19.234 37.564-19.234zM306.934 660.44c8.284 0 15 6.716 15 15 0 4.768 3.88 8.648 8.648 8.648s8.648-3.88 8.648-8.648c0-8.284 6.716-15 15-15s15 6.716 15 15c0 21.31-17.338 38.648-38.648 38.648s-38.648-17.338-38.648-38.648c0-8.284 6.716-15 15-15zM254.112 25.012c0-13.77 11.202-24.974 24.974-24.974h138.9c13.77 0 24.974 11.204 24.974 24.974v138.9c0 13.77-11.204 24.974-24.974 24.974h-138.9c-13.77 0-24.974-11.204-24.974-24.974v-138.9zM284.112 158.884h128.846v-128.846h-128.846v128.846zM669.768 660.44c8.286 0 15 6.716 15 15 0 4.768 3.88 8.648 8.65 8.648s8.648-3.88 8.648-8.648c0-8.284 6.714-15 15-15s15 6.716 15 15c0 21.31-17.338 38.648-38.648 38.648-21.312 0-38.65-17.338-38.65-38.648 0-8.284 6.714-15 15-15zM219.926 0.038v0c13.77 0 24.974 11.204 24.974 24.974v267.876c0 13.77-11.204 24.974-24.974 24.974h-69.818c-13.77 0-24.974-11.204-24.974-24.974v-267.876c0-13.77 11.204-24.974 24.974-24.974h69.818zM155.134 287.862h59.766v-257.824h-59.766v257.824zM957.838 839.052c8.286 0 15 6.716 15 15v40.804c0 35.92-29.224 65.144-65.144 65.144h-791.388c-35.92 0-65.144-29.224-65.144-65.144v-762.426c0-8.284 6.716-15 15-15s15 6.716 15 15v219.472h212.014c8.284 0 15 6.716 15 15s-6.716 15-15 15h-212.014v162.98h68.802v-67.058c0-27.080 22.032-49.114 49.114-49.114h625.844c27.082 0 49.114 22.032 49.114 49.114v67.058h68.802v-162.98h-580.254c-8.284 0-15-6.716-15-15s6.716-15 15-15h580.254v-350.758c0-19.378-15.766-35.144-35.144-35.144h-791.388c-19.378 0-35.144 15.766-35.144 35.144v61.868c0 8.284-6.716 15-15 15s-15-6.716-15-15v-61.868c0-35.92 29.224-65.144 65.144-65.144h791.386c35.92 0 65.144 29.224 65.144 65.144v785.988c0 8.284-6.714 15-15 15s-15-6.716-15-15v-18.412h-68.802v65.356c0 27.082-22.032 49.114-49.114 49.114h-625.842c-27.082 0-49.114-22.032-49.114-49.114v-65.354h-68.802v126.134c0 19.378 15.766 35.144 35.144 35.144h791.386c19.378 0 35.144-15.766 35.144-35.144v-40.804c0.002-8.284 6.716-15 15.002-15zM874.036 738.722h68.802v-163.84h-68.802v163.84zM179.964 834.076c0 10.54 8.574 19.114 19.114 19.114h625.844c10.54 0 19.114-8.574 19.114-19.114v-356.252c0-10.54-8.574-19.114-19.114-19.114h-625.844c-10.54 0-19.114 8.574-19.114 19.114v356.252zM149.964 738.722v-163.84h-68.802v163.84h68.802zM860.7 0.038v0c21.044 0 38.166 17.122 38.166 38.166v241.492c0 21.044-17.122 38.166-38.166 38.166h-316.858c-21.046 0-38.166-17.122-38.166-38.166v-241.492c0-21.044 17.12-38.166 38.166-38.166h316.858zM777.802 287.862h82.896c4.502 0 8.166-3.664 8.166-8.166v-57.776h-91.062v65.942zM777.802 191.92h91.062v-65.942h-91.062v65.942zM777.802 95.98h91.062v-57.774c0-4.502-3.664-8.166-8.166-8.166h-82.896v65.94zM656.738 287.862h91.064v-65.942h-91.064v65.942zM656.738 191.92h91.064v-65.942h-91.064v65.942zM656.738 95.98h91.064v-65.942h-91.064v65.942zM535.676 279.696c0 4.502 3.664 8.166 8.166 8.166h82.896v-65.942h-91.062v57.776zM535.676 191.92h91.062v-65.942h-91.062v65.942zM535.676 38.204v57.776h91.062v-65.942h-82.896c-4.502 0-8.166 3.664-8.166 8.166zM279.086 198.096h138.9c13.77 0 24.974 11.204 24.974 24.974v69.818c0 13.77-11.204 24.974-24.974 24.974h-138.9c-13.77 0-24.974-11.204-24.974-24.974v-69.818c0-13.77 11.204-24.974 24.974-24.974zM284.112 287.862h128.846v-59.766h-128.846v59.766z" />
<glyph unicode="&#xe990;" d="M447.816 166.37c60.046 60.046 60.046 157.4 0 217.446s-157.4 60.046-217.446 0-169.080-266.434-109.034-326.48c60.046-60.046 266.434 48.988 326.48 109.034z" />
<glyph unicode="&#xe991;" d="M393.16 583.454c-99.328 99.328-265.060 55.112-389.328-99.926-5.602-6.99-4.986-17.104 1.348-23.438l14.828-14.828c6.058-6.058 15.59-6.902 22.592-1.968 38.16 26.898 160.522 101.144 245.588 16.078l104.972 124.082z" />
<glyph unicode="&#xe992;" d="M393.16 583.454c-22.022 22.022-47.312 36.972-74.686 45.238-32.516-38.83-64.842-81.816-95.822-129.29-0.68-1.044-1.328-2.102-1.954-3.168 23.544-4.75 46.638-16.012 67.49-36.864l104.972 124.084z" />
<glyph unicode="&#xe993;" d="M647.454 329.16c99.328-99.328 55.112-265.060-99.926-389.328-6.99-5.602-17.104-4.986-23.438 1.348l-14.828 14.828c-6.058 6.058-6.902 15.59-1.968 22.592 26.898 38.162 101.144 160.522 16.078 245.588l124.082 104.972z" />
<glyph unicode="&#xe994;" d="M647.454 329.16c22.022-22.022 36.972-47.312 45.24-74.686-38.83-32.516-81.818-64.842-129.29-95.822-1.044-0.682-2.102-1.328-3.168-1.954-4.75 23.544-16.012 46.638-36.864 67.49l124.082 104.972z" />
<glyph unicode="&#xe995;" d="M497.596 200.592c10.992-10.992 28.172-12.71 41.19-4.214 382.998 249.934 551.696 649.372 461.33 739.738s-489.804-78.332-739.738-461.33c-8.496-13.020-6.778-30.198 4.214-41.19l233.004-233.004z" />
<glyph unicode="&#xe996;" d="M872.1 707.9c0-55.339-44.861-100.2-100.2-100.2s-100.2 44.861-100.2 100.2c0 55.339 44.861 100.2 100.2 100.2s100.2-44.861 100.2-100.2z" />
<glyph unicode="&#xe997;" d="M842.746 778.746c-39.132 39.132-102.576 39.132-141.708 0s-39.132-102.578 0-141.71c14.688-14.688 32.804-23.862 51.772-27.524-7.994 3.984-15.502 9.284-22.166 15.95-33.144 33.144-33.144 86.884 0 120.028 33.144 33.146 86.884 33.146 120.028 0 10.378-10.378 17.506-22.776 21.384-35.928-0.416 25.086-10.168 50.044-29.31 69.184z" />
<glyph unicode="&#xe998;" d="M771.892 592.742c-29.5 0-59.002 11.23-81.46 33.688-21.758 21.76-33.742 50.692-33.742 81.464s11.984 59.702 33.742 81.46 50.688 33.742 81.46 33.742 59.702-11.984 81.46-33.742c21.758-21.76 33.742-50.69 33.742-81.46 0-30.772-11.984-59.704-33.742-81.464v0c-22.458-22.458-51.958-33.688-81.46-33.688zM771.892 793.096c-22.758 0-44.156-8.864-60.248-24.958-16.092-16.092-24.956-37.488-24.956-60.246 0-22.76 8.862-44.156 24.956-60.248 33.22-33.222 87.276-33.222 120.496 0 16.092 16.092 24.956 37.488 24.956 60.248 0 22.758-8.862 44.154-24.956 60.246-16.092 16.094-37.488 24.958-60.248 24.958zM842.748 637.038v0z" />
<glyph unicode="&#xe999;" d="M318.532 556.778c-20.134-26.194-39.628-53.598-58.286-82.198-8.444-12.942-6.578-30.060 4.35-40.988l232.998-232.998c10.928-10.928 28.044-12.794 40.988-4.35 28.6 18.658 56.004 38.152 82.198 58.286l-302.248 302.248z" />
<glyph unicode="&#xe99a;" d="M300.935 397.272l-21.213 21.213 88.556 88.556 21.213-21.213-88.556-88.556z" />
<glyph unicode="&#xe99b;" d="M482.535 215.701l-21.213 21.213 88.556 88.556 21.213-21.213-88.556-88.556z" />
<glyph unicode="&#xe99c;" d="M1000.116 936.116c-34.598 34.596-114.498 31.22-213.966-7.616l206.35-206.35c38.838 99.468 42.214 179.368 7.616 213.966z" />
<glyph unicode="&#xe99d;" d="M1014.514 914.56c-14.426-158.464-183.068-447.38-484.194-643.886-13.018-8.496-30.198-6.778-41.19 4.214l-217.236 217.236c-3.872-5.73-7.712-11.508-11.516-17.338-8.496-13.020-6.778-30.198 4.214-41.19l233.004-233.004c10.992-10.992 28.172-12.71 41.19-4.214 357.974 233.604 528.726 597.8 475.728 718.182z" />
<glyph unicode="&#xe99e;" d="M534.296 442.318l-27.978 27.978c-9.092 9.092-23.834 9.092-32.926 0l-222.746-222.746c-9.092-9.092-9.092-23.834 0-32.926l27.978-27.978c9.092-9.092 23.834-9.092 32.926 0l222.746 222.746c9.092 9.092 9.092 23.834 0 32.926z" />
<glyph unicode="&#xe99f;" glyph-name="px--24206" horiz-adv-x="896" d="M206.6 271.4c-13 28.4-13.8 36.6 14.8 46.2 51.2 16 16-18.4 86.4-98.4h0.6v187.8c2.4 100.4 88 184.4 195.4 184.4 107.8 0 195.4-87 195.4-193.6 0-126.8-121.6-226.4-257-186.6-21 8.4-4.2 63.4 17 57.2 106 0 178.8 20.2 178.8 128.8 0 122-154.2 179.2-233.8 89.2-47-52.8-35.2-84.2-35.2-315.2 101.4-62 236.6-44 320.8 40.2 49.6 49.6 77 116 77 186 0 70.4-27.6 136.4-77.6 186.6-49.6 49.6-115.6 77-186.6 77s-137.6-27.6-187-77c-0.6-0.6-32-33-42.4-47.8l-1-1.2c-6.6-9.4-12.6-18.2-40.2-12.2-13.8 3.4-28.6 11.6-28.6 23.6v373.6c0 10 7.8 21 21 21h482.6c16.6 0 16.6-23.2 16.6-30.2 0-7.8 0-30.2-16.6-30.2h-446.4v-265.8h0.6c208.4 219.6 565.6 72 565.6-217.8 0-356.2-489.6-440.6-620.2-125.6zM333.2 793c-1-8.4 9.2-49 29.2-41.2 249.6 95 405.6-80.8 418.8-80.8 9.6 0 45.6 30.6 28.6 45.6-186.4 178-469 114-476.6 76.4zM786 130.6c-220-219.8-598-121.6-664 208.4 0 24.4-60.8 14.8-57.8-6.6 48-346.8 492-513.8 763.2-242.6 13.8 15.6-25.2 56.8-41.4 40.8zM427.2 346.8c0-8 8.6-14.6 11-17 6-6 12.2-8.8 17-8.8 7.6 0 5.2-0.4 44.6 39 39.2-38.6 38.2-39 44.6-39 10.8 0 37 20.8 21.4 36.4l-34.6 34.6 36.4 36.4c12.6 13.6-20.2 43.6-32.4 31.4l-35.8-35.8c-37.2 37.6-36.8 39-43 39-10 0-36-23.4-24.8-34.6l36.4-36.4c-36.2-35.8-40.8-38.4-40.8-45.2z" />
<glyph unicode="&#xe9a0;" glyph-name="accesories--25397" d="M817.838 737.878c0 19.962-8.642 38.86-23.424 51.95l-2.834 55.942c-1.44 22.688-20.376 40.46-43.11 40.46s-41.668-17.774-43.118-40.652l-0.66-13.022c-3.926 10.488-10.376 19.964-18.838 27.52l-3.010 59.462c-1.44 22.69-20.376 40.462-43.108 40.462-22.734 0-41.668-17.774-43.118-40.652l-3.002-59.27c-3.016-2.692-5.77-5.628-8.248-8.77-2.48 3.142-5.234 6.078-8.248 8.77l-1.242 24.526c-0.42 8.272-7.428 14.682-15.738 14.222-8.276-0.418-14.642-7.464-14.222-15.738l4.268-84.266c0.34-5.358-1.496-10.46-5.168-14.376-3.672-3.912-8.65-6.066-14.016-6.066s-10.344 2.154-14.016 6.066c-3.672 3.914-5.508 9.018-5.158 14.566l6.006 118.624c0.44 6.932 6.224 12.362 13.168 12.362 8.286 0 15 6.714 15 15s-6.714 15-15 15c-22.732 0-41.668-17.772-43.12-40.652l-3-59.27c-6.974-6.228-12.562-13.766-16.514-22.096l-2.992 59.092c-1.44 22.688-20.374 40.46-43.108 40.46s-41.67-17.774-43.12-40.652l-3.316-65.46c-14.448-13.072-22.932-31.872-22.932-51.49l0.008-384.556c-1.808 2.686-3.332 5.592-4.458 8.72l-39.612 109.992c-10.94 30.378-41.706 48.034-72.47 43.62l-17.598 35.152c-7.538 15.992-25.882 24.060-42.778 18.768-9.11-2.852-16.546-9.088-20.942-17.56-4.394-8.474-5.208-18.146-2.35-27.054l78.49-249.136c3.758-11.712 9.344-22.69 16.604-32.63l33.566-48.094c2.916-4.18 7.576-6.418 12.314-6.418 2.962 0 5.958 0.876 8.57 2.702 6.794 4.742 8.458 14.092 3.716 20.884l-33.662 48.232c-0.066 0.096-0.132 0.19-0.202 0.282-5.402 7.372-9.554 15.516-12.342 24.208l-32.89 102.478c30.28-2.154 56.658 33.834 41.646 63.976l-17.254 34.466c13.010-1.954 24.586-10.806 29.352-24.038l39.612-109.992c5.914-16.422 17.562-29.744 32.682-37.788l-0.006-40.38c-0.002-8.284 6.712-15 14.998-15.002h0.002c8.284 0 14.998 6.714 15 14.998v429.846c16.932-23.66 59.34-27.6 78.734 0.002v-291.828c0-8.286 6.714-15 15-15s15 6.714 15 15v118.698h78.734v-118.698c0-8.286 6.714-15 15-15s15 6.714 15 15v54.568h78.734v-54.568c0-8.286 6.714-15 15-15s15 6.714 15 15v240.528c16.93-23.662 59.34-27.604 78.734-0.004l-0.008-467.812c0-27.336-7.888-53.862-22.816-76.708l-18.86-28.876c-10.63-16.286-16.252-35.162-16.252-54.59v-87.826c0-6.888-5.606-12.494-12.494-12.494h-64.27c-8.286 0-15-6.714-15-15s6.714-15 15-15h64.27c23.432 0 42.494 19.062 42.494 42.494v87.828c0 13.588 3.932 26.792 11.372 38.186l18.856 28.872c18.124 27.738 27.702 59.938 27.702 93.118zM241.594 468.292c-1.742-3.946-4.966-6.834-9.080-8.134-7.742-2.446-16.070 1.852-18.496 9.41l-32.692 106.436c-0.616 1.914-0.042 3.486 0.358 4.254 0.398 0.766 1.352 2.142 3.27 2.742 0.546 0.172 1.102 0.254 1.65 0.254 2.116 0 4.124-1.218 5.048-3.22 0.064-0.14 0.132-0.282 0.202-0.42l49.712-99.302c1.732-3.872 1.744-8.132 0.028-12.020zM603.846 763.918c18.63-20.274 56.81-21.454 75.258 4.156v-99.034h-78.734v99.034c1.078-1.442 2.234-2.832 3.476-4.156zM639.736 623.326l-16.638 15.712h33.276zM654.736 596.228l24.368 23.012v-60.746l-24.368 22.722zM600.37 587.476v31.766l24.368-23.014v-15.072l-24.368-23.014zM639.8 554.124l16.916-15.776h-33.62zM639.736 930c6.944 0 12.728-5.43 13.158-12.168l6.026-119.010c0.342-5.356-1.494-10.458-5.166-14.372s-8.65-6.068-14.018-6.068c-5.366 0-10.344 2.154-14.016 6.066-3.672 3.914-5.508 9.018-5.158 14.566l6.008 118.624c0.44 6.932 6.222 12.362 13.166 12.362zM531.002 748.382c13.448 0.464 29.542 6.198 39.368 19.692v-118.526h-78.734v118.526c7.522-10.292 23.144-19.778 39.366-19.692zM436.284 761.984c-3.672-3.914-8.65-6.068-14.016-6.068-5.368 0-10.346 2.154-14.018 6.068-3.672 3.912-5.508 9.016-5.158 14.562l6.008 118.626c0.44 6.93 6.222 12.36 13.168 12.36 6.944 0 12.726-5.43 13.156-12.168l3.638-71.838c0.008-0.226 0.016-0.45 0.034-0.674l2.354-46.498c0.342-5.354-1.494-10.458-5.166-14.37zM491.634 602.476v17.072h78.734v-17.072zM762.488 710.684c-3.672-3.914-8.65-6.068-14.018-6.068-5.366 0-10.344 2.154-14.016 6.068-3.672 3.912-5.508 9.016-5.158 14.562l6.008 118.626c0.44 6.93 6.222 12.36 13.166 12.36 6.946 0 12.728-5.43 13.158-12.168l6.028-119.010c0.34-5.354-1.496-10.458-5.168-14.37zM584.114-34h-155.346c-6.888 0-12.492 5.606-12.492 12.494v86.394c1.69 29.48-17.988 59.080-36.098 83.098l-32.52 46.594c-4.742 6.792-14.092 8.458-20.884 3.716-6.794-4.742-8.458-14.092-3.716-20.884l44.068-63.142c10.46-13.544 18.826-28.9 19.144-49.39l0.008-86.388c0-23.432 19.062-42.494 42.492-42.494h155.346c8.286 0 15 6.714 15 15s-6.718 15.002-15.002 15.002zM135.806 694.706h-19.912v19.914c0 8.286-6.714 15-15 15s-15-6.714-15-15v-19.914h-19.914c-8.286 0-15-6.714-15-15s6.714-15 15-15h19.914v-19.914c0-8.286 6.714-15 15-15s15 6.714 15 15v19.914h19.912c8.286 0 15 6.714 15 15s-6.714 15-15 15zM122.962 771.524c25.918-8.482 46.456-29.026 54.936-54.962 2.718-8.3 10.376-13.876 19.050-13.876h0.366c8.68 0 16.336 5.58 19.052 13.886 4.158 12.718 11.396 24.484 20.934 34.020 9.526 9.528 21.292 16.766 34.030 20.934 8.3 2.718 13.876 10.376 13.876 19.050v0.368c0 8.684-5.582 16.34-13.878 19.048-12.732 4.168-24.5 11.406-34.028 20.936-9.538 9.536-16.776 21.3-20.936 34.024-2.714 8.302-10.372 13.882-19.050 13.882h-0.364c-8.688 0-16.344-5.584-19.052-13.888-4.162-12.736-11.392-24.5-20.91-34.018-9.528-9.53-21.294-16.768-34.018-20.932-8.306-2.712-13.888-10.37-13.888-19.052v-0.368c0-8.678 5.576-16.334 13.88-19.052zM178.204 809.712c7.404 7.404 13.782 15.82 18.934 24.918 5.154-9.092 11.54-17.508 18.95-24.92 7.412-7.41 15.832-13.796 24.936-18.954-9.102-5.156-17.524-11.542-24.936-18.954s-13.794-15.83-18.95-24.92c-10.37 18.298-25.576 33.506-43.864 43.878 9.1 5.156 17.518 11.54 24.93 18.952zM959.14 83.668c-12.732 4.168-24.498 11.406-34.028 20.936-9.538 9.536-16.776 21.298-20.932 34.016-2.712 8.306-10.372 13.888-19.054 13.888h-0.364c-8.68 0-16.336-5.58-19.052-13.888-4.16-12.738-11.39-24.5-20.91-34.018-9.528-9.528-21.292-16.766-34.030-20.934-8.298-2.718-13.876-10.374-13.876-19.050v-0.368c0-8.676 5.576-16.33 13.876-19.048 25.92-8.482 46.458-29.028 54.94-54.958 2.714-8.302 10.372-13.88 19.050-13.88h0.364c8.684 0 16.342 5.582 19.052 13.884 4.158 12.72 11.396 24.484 20.936 34.020 9.53 9.53 21.294 16.77 34.030 20.936 8.298 2.718 13.876 10.374 13.876 19.050v0.366c0.002 8.674-5.574 16.33-13.878 19.048zM903.902 45.48c-7.412-7.41-13.796-15.828-18.954-24.92-10.37 18.292-25.574 33.504-43.864 43.876 9.1 5.156 17.52 11.542 24.928 18.952 7.406 7.404 13.786 15.82 18.938 24.918 5.154-9.092 11.538-17.506 18.95-24.916 7.412-7.414 15.832-13.798 24.934-18.958-9.1-5.154-17.52-11.54-24.932-18.952z" />
<glyph unicode="&#xe9a1;" glyph-name="accessible-icon--24207" horiz-adv-x="896" d="M847.8 448.4l-25.8-314.6c-6.6-81.4-127.8-70.2-121.2 9.8l20 245-82.2-4.6c20.2-41.4 31.6-87.8 31.6-137 0-82.4-32.2-157.4-84.6-213l-78.6 78.6c115.8 127.4 26.2 334.4-148 334.4-51.8 0-99-19.8-134.4-52l-78.6 78.6c44 41.4 100.2 70.2 162.8 80.4l150.6 171.4-85.2 49.6-103.2-92c-60-53.6-141.2 37-81 90.8l136 121.4c19.6 17.6 48.2 20.4 71 7.2 0 0 278.6-161.8 279-162.2 32.4-20.2 41.4-72 12.2-105.2l-116.8-133 212.2 11.8c37 2.2 67.2-28.8 64.2-65.4zM718 756.4c56.2 0 101.8 45.6 101.8 101.8s-45.6 101.8-101.8 101.8c-56.2 0-101.8-45.6-101.8-101.8s45.6-101.8 101.8-101.8zM359.2 47c-161.2 0-254.8 181.2-165.4 312.2l-79.4 79.4c-41.6-52.6-66.4-119.2-66.4-191.4 0-261.4 301.4-402.8 502.8-245l-79.4 79.4c-32-21.8-70.6-34.6-112.2-34.6z" />
<glyph unicode="&#xe9a2;" d="M937.605 812.212c-16.557 0-29.979 13.423-29.979 29.979v87.83c0 16.557 13.423 29.979 29.979 29.979s29.979-13.423 29.979-29.979v-87.83c0-16.557-13.423-29.979-29.979-29.979z" />
<glyph unicode="&#xe9a3;" d="M997.464 694.405l-57.616 22.047-63.398-22.047v-455.729l61.374-131.851 59.641 131.851z" />
<glyph unicode="&#xe9a4;" d="M997.464 863.654c0 9.781-7.931 17.712-17.712 17.712h-85.591c-9.781 0-17.712-7.931-17.712-17.712v-105.663l61.26-44.449 59.755 44.449z" />
<glyph unicode="&#xe9a5;" d="M950.906-56.095l18.325 27.363c18.459 30.049 28.231 69.114 28.231 104.38v99.44l-57.498 32.731-63.514-32.731v-100.989c0-34.29 9.24-72.434 26.746-101.92l18.12-28.035c6.911-10.691 22.509-10.817 29.592-0.24z" />
<glyph unicode="&#xe9a6;" d="M997.464 757.991v-63.588h-121.013v63.588z" />
<glyph unicode="&#xe9a7;" d="M997.464 238.676v-63.588h-121.013v63.588z" />
<glyph unicode="&#xe9a8;" d="M768.118-64h-718.546c-12.721 0-23.036 10.313-23.036 23.036v977.218c0 12.721 10.313 23.036 23.036 23.036h718.546c12.723 0 23.036-10.313 23.036-23.036v-977.22c0-12.721-10.313-23.034-23.036-23.034z" />
<glyph unicode="&#xe9a9;" d="M768.118 959.29h-357.444v-1023.29h357.444c12.721 0 23.036 10.313 23.036 23.036v977.218c0 12.723-10.313 23.036-23.036 23.036z" />
<glyph unicode="&#xe9aa;" d="M410.674 586.926l-0.088-0.306v0.306h-256.825v-499.964c0-12.847 10.415-23.262 23.262-23.262h467.219c12.847 0 23.262 10.415 23.262 23.262v499.964z" />
<glyph unicode="&#xe9ab;" d="M410.674 586.926v-523.226h233.565c12.847 0 23.262 10.415 23.262 23.262v499.964z" />
<glyph unicode="&#xe9ac;" d="M280.495 323.608h130.091v-131.659h-130.091z" />
<glyph unicode="&#xe9ad;" d="M667.501 586.926v218.112c0 14.71-11.926 26.636-26.636 26.636h-460.469c-14.71 0-26.636-11.926-26.636-26.636v-218.114h513.741z" />
<glyph unicode="&#xe9ae;" d="M280.495 586.926h130.091v-131.659h-130.091z" />
<glyph unicode="&#xe9af;" d="M153.76 191.948v-104.988c0-12.847 10.415-23.262 23.262-23.262h103.475v128.25z" />
<glyph unicode="&#xe9b0;" d="M153.76 455.267h126.735v-131.659h-126.735z" />
<glyph unicode="&#xe9b1;" d="M537.411 455.267h130.091v-131.659h-130.091z" />
<glyph unicode="&#xe9b2;" d="M410.674 586.926h126.735v-131.659h-126.735z" />
<glyph unicode="&#xe9b3;" d="M410.674 323.608h126.735v-131.659h-126.735z" />
<glyph unicode="&#xe9b4;" d="M537.411 63.7h106.829c12.847 0 23.262 10.415 23.262 23.262v236.645h-130.091z" />
<glyph unicode="&#xe9b5;" d="M640.865 831.674h-230.192v-244.75h256.827v218.114c0 14.712-11.926 26.636-26.636 26.636z" />
<glyph unicode="&#xe9b6;" glyph-name="accusoft--24208" horiz-adv-x="1280" d="M644.2 456v2l-102.4 131.6s-24-3.2-50-30.2c-18-18.6-484.2-478.2-486.8-481.8-14-20 3.2-13.6 31.4-3.4 1.6 0 229 73.2 229 73.2 1 1.2-0.2 0.2 1.2 1.2-0.8 10.2-1.6 52.4-2 55.4-1.2 10.4 4.4 13.8 14 17.8l185.2 67.6c1.2 1.6 177 163.4 180.4 166.6zM964.4 215.8c26.6-32.2 41.4-26.6 61.6-18.6 6.4 2.4 230.8 95.2 235.6 97.8 16 8.6-3.4 33.4-14.4 46.8-4.2 5-410.2 491.2-414.4 496.6-19.4 24.4-28.6 25.8-76.8 25.6-20.4 0-213.6-1-233-1.2-38.4-0.2-65.8 0.6-38.4-33.8 15.4-19 468.4-599.4 479.8-613.2zM1269.8 212.6c-4.6 0.6-49.2 9.4-76 14.4 0 0-230-100.8-235-103.2-32-14.6-53.8 6.4-73.4 29.2l-114.2 148c-10.8 1.8-120.8 19.2-130.6 18.6-6.2-0.4-19.2-1.6-28.8-5.8-9.8-4.2-290.4-105.6-300.4-109.4-10.2-4-22.8-7.2-22.2-15.2 0.4-5 4-5.2 9.2-7 5.4-1.6 601.8-135.2 616-138.2 31.2-6.6 77-21 107.2-3.4 4.2 2.4 247.6 152.8 251.6 155.6 10.8 8 8.6 13.6-3.4 16.4z" />
<glyph unicode="&#xe9b8;" d="M991.286 816.098l0.114 0.116-147.26 85.002c-19.95 11.82-45.794 13.662-68.746 0.412l-712.345-410.959c-38.824-22.268-62.77-63.608-62.77-108.366v-30.024c-0.168-3.292-0.28-6.594-0.28-9.914v-204.318c0-26.748 14.792-48.35 35.298-59.636l-0.010-0.076 141.502-81.634c20.318-13.512 47.67-16.258 71.814-2.32l678.759 391.881c59.8 34.526 96.638 98.33 96.638 167.382v204.318c-0.002 25.608-13.564 46.498-32.714 58.136z" />
<glyph unicode="&#xe9b9;" d="M243.118 425.041l678.759 391.881c45.388 26.204 102.122-6.552 102.122-58.96v-204.318c0-69.050-36.838-132.856-96.638-167.382l-678.759-391.881c-45.386-26.204-102.12 6.55-102.12 58.96v204.318c0 69.050 36.838 132.856 96.636 167.382z" />
<glyph unicode="&#xe9ba;" d="M300.131 195.673l-3.532 15.872-23.288-13.446-3.628-20.004-21.276-12.284 23.384 109.462 25.836 14.916 23.68-82.29-21.176-12.226zM292.581 230.405l-3.088 13.904c-0.72 3.072-1.594 7.078-2.626 12.016-1.028 4.942-1.708 8.514-2.036 10.724-0.292-2.392-0.874-6.388-1.738-11.986-0.868-5.6-2.788-16.754-5.76-33.46l15.248 8.802z" />
<glyph unicode="&#xe9bb;" d="M389.897 297.311c0-15.95-3.292-30.14-9.878-42.57-6.586-12.432-15.844-22.090-27.774-28.978l-23.188-13.388v95.568l24.806 14.322c11.504 6.642 20.384 7.848 26.644 3.616 6.262-4.23 9.39-13.754 9.39-28.57zM369.797 284.791c0 8.76-1.298 14.502-3.898 17.23-2.6 2.726-6.544 2.562-11.84-0.496l-5.638-3.256v-53.536l4.314 2.492c5.882 3.396 10.198 8.164 12.944 14.302s4.118 13.894 4.118 23.264z" />
<glyph unicode="&#xe9bc;" d="M463.583 339.853c0-15.95-3.294-30.14-9.878-42.57-6.588-12.432-15.844-22.090-27.774-28.978l-23.19-13.388v95.568l24.806 14.322c11.504 6.642 20.386 7.848 26.646 3.616 6.26-4.23 9.39-13.752 9.39-28.57zM443.483 327.333c0 8.76-1.298 14.502-3.898 17.23-2.598 2.726-6.542 2.562-11.838-0.496l-5.638-3.256v-53.536l4.314 2.492c5.882 3.396 10.198 8.164 12.944 14.302 2.744 6.14 4.116 13.894 4.116 23.264z" />
<glyph unicode="&#xe9bd;" d="M534.131 330.775l-19.366-11.18v74.454l-17.502-10.106v21.116l54.32 31.362v-21.116l-17.454-10.076v-74.454h0.002z" />
<glyph unicode="&#xe9be;" d="M628.897 433.401c0-16.080-2.956-30.010-8.872-41.792-5.916-11.784-14.576-20.966-25.984-27.552-11.242-6.492-19.862-7.262-25.86-2.316-5.998 4.948-8.998 15.462-8.998 31.542 0 15.906 2.982 29.774 8.948 41.61 5.966 11.832 14.634 21.034 26.008 27.6 11.408 6.586 20.052 7.416 25.936 2.488 5.88-4.93 8.822-15.456 8.822-31.58zM579.579 404.927c0-18.476 4.82-24.932 14.46-19.366 4.904 2.83 8.54 7.174 10.908 13.030 2.372 5.856 3.556 13.536 3.556 23.036 0 9.544-1.202 15.9-3.606 19.066-2.402 3.168-5.988 3.374-10.762 0.62-9.704-5.606-14.556-17.734-14.556-36.386z" />
<glyph unicode="&#xe9bf;" d="M699.837 502.207c-4.608-2.66-8.204-7.254-10.784-13.778-2.584-6.524-3.876-14.208-3.876-23.054 0-18.392 5.246-24.558 15.738-18.5 3.17 1.83 6.242 4.192 9.216 7.088 2.972 2.892 5.964 6.036 8.97 9.428v-21.832c-5.98-6.984-12.746-12.654-20.294-17.012-10.818-6.246-19.114-6.852-24.88-1.814-5.77 5.036-8.654 15.462-8.654 31.284 0 9.89 1.396 19.392 4.194 28.5 2.794 9.11 6.812 17.194 12.060 24.254 5.244 7.058 11.414 12.636 18.506 16.732 7.746 4.472 15.15 6.502 22.208 6.088l-5.932-23.752c-2.648 0.126-5.296-0.008-7.942-0.402-2.646-0.4-5.488-1.476-8.53-3.23z" />
<glyph unicode="&#xe9c0;" d="M777.054 471.027l-3.53 15.872-23.29-13.446-3.626-20.006-21.278-12.284 23.386 109.462 25.834 14.916 23.682-82.29-21.178-12.224zM769.504 505.757l-3.088 13.904c-0.718 3.072-1.594 7.078-2.624 12.016-1.030 4.942-1.708 8.514-2.036 10.724-0.294-2.392-0.876-6.388-1.738-11.986-0.87-5.6-2.79-16.754-5.762-33.46l15.248 8.802z" />
<glyph unicode="&#xe9c1;" d="M825.344 533.681v-34.776l-19.364-11.18v95.568l23.482 13.558c19.478 11.246 29.22 7.456 29.22-11.37 0-11.068-4.052-21.972-12.158-32.71l20.884-29.58-21.964-12.68-15.198 26.002-4.902-2.832zM825.344 553.095l3.628 2.094c6.766 3.906 10.148 9.848 10.148 17.822 0 6.58-3.316 7.956-9.954 4.126l-3.824-2.208 0.002-21.834z" />
<glyph unicode="&#xe9c2;" d="M905.55 545.213l-19.366-11.18v74.454l-17.502-10.106v21.116l54.32 31.362v-21.116l-17.454-10.076v-74.454h0.002z" />
<glyph unicode="&#xe9c3;" d="M259.525 46.138c-36.554 0-66.292 29.738-66.292 66.292v146.708c0 62.762 33.766 121.246 88.12 152.628l596.593 344.441c10.15 5.86 21.566 8.958 33.010 8.958 36.554 0 66.292-29.738 66.292-66.292v-146.708c0-62.764-33.766-121.248-88.12-152.628l-596.593-344.439c-10.152-5.862-21.568-8.96-33.010-8.96zM910.954 752.44c-9.346 0-18.31-2.44-26.646-7.254l-596.595-344.441c-50.43-29.116-81.756-83.378-81.756-141.608v-146.708c0-29.536 24.030-53.566 53.566-53.566 9.346 0 18.31 2.44 26.646 7.254l596.591 344.441c50.43 29.116 81.758 83.376 81.758 141.608v146.708c0.002 29.536-24.028 53.566-53.564 53.566z" />
<glyph unicode="&#xe9c4;" d="M921.876 816.922l-149.688-86.422-325.367-621.677 461.703 266.565 115.474 220.634v161.94c0 52.41-56.734 85.164-102.122 58.96z" />
<glyph unicode="&#xe9c5;" d="M304.639 460.561l-158.16-302.191v-105.026c0-52.41 56.734-85.164 102.122-58.96l81.332 46.958 325.367 621.677-350.661-202.458z" />
<glyph unicode="&#xe9c6;" d="M146.482 53.342v260.325c0 35.008-18.706 67.348-49.054 84.8l-29.902 17.198c-28.596 16.448-63.914-2.424-67.244-34.168v-29.22c-0.17-3.29-0.282-6.592-0.282-9.912v-204.318c0-26.748 14.792-48.352 35.298-59.636l-0.010-0.076 141.5-81.634c-17.876 11.888-30.306 32.11-30.306 56.64z" />
<glyph unicode="&#xe9c7;" glyph-name="adn--24209" horiz-adv-x="992" d="M496 625l129.8-197.6h-259.6l129.8 197.6zM992 448c0-273.8-222.2-496-496-496s-496 222.2-496 496 222.2 496 496 496 496-222.2 496-496zM792.4 282.6l-296.4 446.4-296.4-446.4h60.8l67.2 103.4h337.2l67.2-103.4h60.4z" />
<glyph unicode="&#xe9c8;" glyph-name="adversal--24210" d="M964.2 896h-906.8c-45.8 0-57.4-11.8-57.4-57.8v-780.4c0-46.6 11.6-57.8 57.4-57.8h906.8c48.8 0 59.8 10.4 59.8 59.4v776.2c0 49.2-10.8 60.4-59.8 60.4zM356.8 519.4c-55 40.4-144.2 17.4-168.4-46.8-8.6-22.2-18.6-19-35-16.6-19.4 3-34.4 6.4-45 11-57.6 22.8 17.2 110.6 49.8 128.6 82.2 42.8 166.8 44.4 250.6 9.6 81.8-33.6 69-118.4 69-257 5.4-51.6-8.6-116.6 18.6-177.6 3.8-8.8 0.8-15.8-5.4-21.4-16.8-13.4-78.6-4.4-93.2 14.8-3.8 4.4-3.6 7.2-7.8 12.4-7.2 7.8-14.6 4.4-23.8-2-114.8-72.8-280.6-42.8-294 86.6-6.2 58.6 24.8 114.2 79.2 142 76.4 39 224.4 23.6 228 61.8 2.2 20.4-3.8 40.2-22.6 54.6zM930.2 75.4c0-30.2-22.2-19.8-35.6-19.8h-789.8c-14.8 0-36.4-9.6-35.6 21.4 0.8 27.8 21 18.2 34.2 18.2 264.6 0.8 529 0.8 793.6 0 13.6 0 33.2 8.8 33.2-19.8zM937.8 756.4v-582c0-11.4-1.4-27.8-16.2-27.8-24.8 0.8-55-14.2-72.2 11.2-11.6 17.4-15.6 8-24.8 2.4-106.8-59.4-256.2-14.2-288.8 170.4-12.2 66.8-1.4 134.2 31.4 200 23.6 47.8 113.8 152.2 272.2 61v142c0 52.4-0.2 52.4 52 52.4 6.2 0 13.2-0.8 19.4 0 20.2 1.6 27.2-8.8 27.2-28.6-0.2-0.4-0.2-0.6-0.2-1zM834.8 291.8c-39-95.2-145.8-86.6-180-10.4-30.2 66.6-31 136.4 0.8 203 32.6 68.2 119.4 71.4 163 9.6 41.2-57.6 29.8-169.2 16.2-202.2zM245.2 221.2c-15 2.6-66 6.6-67.4 55.6-0.8 27.8 15.6 46 39.6 51.6 48.8 11.8 98.6 19.8 147.4 29.4 17.8 4 14.8-8.8 15.6-19 2.8-66-52.2-118.4-135.2-117.6z" />
<glyph unicode="&#xe9c9;" glyph-name="affiliatetheme--24211" d="M319.4 485.2c-102.6-141.8-233.2-221.6-291.4-178.4-58.4 43.4-22.4 193.2 80.4 335 102.6 141.8 233.2 221.6 291.4 178.4s22.2-193.2-80.4-335zM1021.8 599.8c-147.6-246.8-383.8-375.4-529-287.2-50 30.4-82.6 82.4-98 147.6-67.2-129.6-185.6-227.6-328.2-266.4 99.6-118.6 248.2-193.8 414-193.8 300 0 543.2 246.2 543.2 549.8 0.2 17-0.6 33.6-2 50z" />
<glyph unicode="&#xe9ca;" d="M837.909 959.786h-651.821c-17.174 0-31.096-13.922-31.096-31.096v-961.38c0-17.174 13.922-31.096 31.096-31.096h651.821c17.174 0 31.098 13.922 31.098 31.096v961.38c0 17.174-13.924 31.096-31.098 31.096z" />
<glyph unicode="&#xe9cb;" d="M837.909 959.786h-333.133v-1023.572h333.133c17.174 0 31.098 13.922 31.098 31.096v961.38c0 17.174-13.924 31.096-31.098 31.096z" />
<glyph unicode="&#xe9cc;" d="M313.839 776.109h381.899v-203.945h-381.899z" />
<glyph unicode="&#xe9cd;" d="M30.004 204.337c-0.060 0-0.118 0-0.178 0-16.568 0.096-29.922 13.604-29.826 30.174l0.284 49.042c0.292 50.304 41.456 91.228 91.758 91.228h300.363c16.568 0 30-13.432 30-30s-13.432-30-30-30h-300.363c-17.41 0-31.656-14.166-31.758-31.576l-0.284-49.040c-0.096-16.51-13.51-29.826-29.996-29.828z" />
<glyph unicode="&#xe9ce;" d="M415.062 263.975l-138.879-55.21 138.879-60.752h348.513l96.78 58.812-96.78 57.15z" />
<glyph unicode="&#xe9cf;" d="M16.972 263.975c-9.374 0-16.972-7.598-16.972-16.972v-82.018c0-9.374 7.598-16.972 16.972-16.972h337.159l12.724 58.702-12.724 57.26z" />
<glyph unicode="&#xe9d0;" d="M504.776 776.109h190.959v-203.945h-190.959z" />
<glyph unicode="&#xe9d1;" d="M504.778 263.975v-115.962h229.231l126.346 58.812-126.346 57.15z" />
<glyph unicode="&#xe9d2;" d="M1016.472 219.361l-26.222 17.562c-28.796 17.688-66.228 27.052-100.022 27.052h-95.288l-31.366-55.098 31.366-60.864h96.772c32.858 0 69.41 8.854 97.664 25.628l26.864 17.364c10.246 6.622 10.368 21.568 0.232 28.356z" />
<glyph unicode="&#xe9d3;" d="M704.795 813.227h-385.594c-16.568 0-30-13.432-30-30v-222.221c0-16.568 13.432-30 30-30h385.594c16.568 0 30 13.432 30 30v222.221c0 16.57-13.432 30-30 30zM674.795 753.227v-51.112h-325.595v51.112zM349.201 591.005v51.112h325.595v-51.112z" />
<glyph unicode="&#xe9d4;" d="M704.795 813.227h-200.017v-60h170.017v-51.112h-170.017v-60h170.017v-51.112h-170.017v-60h200.017c16.568 0 30 13.432 30 30v222.223c0 16.57-13.432 30-30 30z" />
<glyph unicode="&#xe9d5;" d="M354.131 263.975h60.932v-115.962h-60.932z" />
<glyph unicode="&#xe9d6;" d="M734.009 263.975h60.932v-115.962h-60.932z" />
<glyph unicode="&#xe9d7;" glyph-name="airbnb--24212" horiz-adv-x="896" d="M448 213.76c-50.48 63.34-80.16 118.86-90 166.36-45.1 176 225.22 176 180.12 0-10.9-48.5-40.58-104-90-166.36zM724.3 67.3c-84.12-36.62-167.34 21.76-238.6 100.94 207.8 260.14 92.22 400-37.7 400-109.84 0-170.32-93.020-146.56-201 13.86-58.38 50.46-124.78 108.86-199-65.060-72.1-121.1-105.38-170.3-109.84-100-14.86-178.22 82.12-142.6 182.18 30.2 78.32 223.44 462.36 231.74 483.12 31.5 60.14 51.12 114.8 118.76 114.8 64.68 0 86.8-51.88 120.74-119.74 72-141.24 178.7-354.96 229.68-478.18 26.34-66.14-2.74-142.58-74.020-173.28zM818.3 339.54c-257.76 548.6-272.040 556.46-370.3 556.46-91.040 0-129.74-63.34-169.32-145.58-212.32-424.62-232.9-484.8-234.68-490.040-50.44-138.66 53.48-260.38 179.26-260.38 43.42 0 121.22 12.12 224.74 124.8 117.36-127.56 202.52-124.8 224.74-124.8 125.78-0.1 229.7 121.72 179.22 260.38 0.040 7.78-33.64 77.8-33.64 79.16z" />
<glyph unicode="&#xe9dc;" glyph-name="algolia--24213" horiz-adv-x="896" d="M458.6 594.8c-98.6 0-178.4-79.8-178.4-178.4s79.8-178.4 178.4-178.4 178.4 79.8 178.4 178.4c0 98.6-80 178.4-178.4 178.4zM584 481.6l-117.8-61.2c-3.6-1.8-7.6 0.8-7.6 4.6v133c0 3 2.6 5.4 5.4 5.2 52.4-2 97.8-31.4 122.2-74.2 1.4-2.6 0.4-6-2.2-7.4zM778.2 896h-660.4c-65 0-117.8-52.8-117.8-117.8v-660.2c0-65.2 52.8-118 117.8-118h660.2c65.2 0 117.8 52.8 117.8 117.8v660.4c0.2 65-52.6 117.8-117.6 117.8zM373 726.6c0 21.6 17.4 39 39 39h90.6c21.6 0 39-17.4 39-39v-30.8c0-3.6-3.4-6-6.6-5-24.6 6.8-50.2 10.2-76.2 10.2-27 0-53.4-3.6-78.8-11-3.4-1-6.8 1.6-6.8 5v31.6zM204.2 652.6l18.4 18.4c15.2 15.2 39.8 15.2 55 0l15.4-15.4c2.2-2.2 2-6-0.6-8-12.4-9-24.2-18.8-35.2-29.8-10.8-10.8-20.8-22.6-29.6-34.8-2-2.6-5.8-3-8-0.6l-15.4 15.4c-15.2 15-15.2 39.6 0 54.8zM458.6 163c-140 0-253.2 113.4-253.2 253.2s113.4 253.2 253.2 253.2c140 0 253.2-113.2 253.2-253.2 0-139.6-113.4-253.2-253.2-253.2z" />
<glyph unicode="&#xe9dd;" glyph-name="alibaba--25395" d="M1024 78.44c-13.98 31.52-36.82 54.56-62.52 71.54 37.88 29.32 52.3 63.9 52.3 63.9-67.24 27.62-133.88 14.72-180.72-2.76v472.14h-0.020v100.36c-0.1 29.88-23.94 54.060-53.38 54.2h-593.14c-29.48-0.12-53.3-24.32-53.38-54.18v-114.12h0.24c-8.96-201.36-133.28-331.6-133.34-331.66 111.48 0.98 165.82 77.48 165.82 77.48-2.88-68.78-80.060-151.080-80.060-151.080 23.68 5.72 43.82 13.62 61.020 22.9v-182.6c0.1-25.6 20.6-46.32 45.86-46.38h594.48c21.28 0.060 39.12 14.72 44.34 34.6 96.6-68.32 192.5-14.34 192.5-14.34zM159.22 201.32v93.080c83.44 52.62 86.66 138.38 86.66 138.38 31.48-103.62-13.3-141.4-13.3-141.4 191.56 57.32 191.42 343.56 190.7 378.16h397.36v-468.2h-661.42zM0 337.86s0.020 0 0.040 0v0s-0.040 0-0.040 0zM609.54 326.080l8.42-12.82c-38.060-24.86-81.92-31.48-83.72-31.76 0 0-0.54-0.060-0.54-0.060h-120.6v15.28h119.44c4.92 0.82 43.98 7.8 77 29.36zM744.28 556c-4.080-7.4-10.94-12.78-19-14.88l-170.42-33.020h-7.6l-3.8 11.66 7.62 0.64-0.64 11.34-14.72 20.86-3.12 12.060 8.32 1.82 39.28-29.26 122.26 25.9s22.18 6.44 41.82-7.14zM698.56 528.72c0.9-4.56 1.34-9.18 1.34-13.82 0.060-36.78-27.22-67.7-63.22-71.62s-69.12 20.4-76.76 56.34h-0.020l138.66 29.1z" />
<glyph unicode="&#xe9de;" glyph-name="alibaba-shawl--25396" d="M479.58 837.64c-0.12-0.12-9.020-0.6-19.82-1.060s-22.2-0.94-25.52-1.18c-13.3-0.94-25.18-1.9-29.080-2.38-2.26-0.24-7.36-0.84-11.28-1.18-8.78-0.84-25.88-2.84-31.58-3.68-2.38-0.24-6.42-0.72-8.9-1.060-2.5-0.24-6.3-0.72-8.32-1.060-2.14-0.36-6.18-0.94-8.9-1.3-2.84-0.36-9.74-1.42-15.32-2.38s-12.22-2.020-14.84-2.5c-2.62-0.36-15.44-2.84-28.5-5.46-29.2-5.7-26.36-5.22-39.18-8.080-5.82-1.3-11.76-2.74-13.060-2.96-25.28-5.58-76.82-20.18-118.38-33.48l-10.44-3.32v-18.040c0-16.5 0.24-18.16 2.14-18.28 2.84-0.12 6.54-0.72 25.76-4.16 20.3-3.56 18.88-3.32 32.66-6.3 6.18-1.3 15.32-3.2 20.18-4.28 42.14-8.9 117.3-28.26 153.76-39.66 34.56-10.8 50.58-16.020 55.8-17.92 3.32-1.3 11.28-4.16 17.8-6.42 75.86-26.12 161.12-65.42 227.96-104.96 14.84-8.9 49.64-31.1 57.46-36.8 2.84-2.14 5.58-3.8 6.060-3.8 2.74 0 53.080 49.040 71.36 69.46 40.96 45.84 75.28 92.14 101.88 137.72 10.1 17.22 26.24 48.2 26.24 50.34 0 2.020-55.1 22.2-85.36 31.22-20.060 5.94-47.74 13.42-54.74 14.72-1.66 0.36-5.94 1.3-9.5 2.26-14.84 3.8-63.88 13.060-81.92 15.32-2.96 0.48-7.24 0.94-9.5 1.3s-6.54 0.84-9.5 1.18-6.64 0.94-8.32 1.18-6.42 0.84-10.68 1.18c-4.28 0.48-9.26 0.94-11.28 1.18-1.9 0.24-8.32 0.72-14.24 1.18-5.82 0.48-12.58 0.94-14.84 1.18-15.68 1.42-104.72 3.44-106.020 2.26zM97.14 423.98c0-155.060 0.48-248.5 1.18-249.22 0.6-0.6 4.86-3.2 9.38-5.82 62.1-34.78 116.84-57.7 188.2-79.2 15.68-4.64 57.22-14.36 76.58-17.8 10.8-1.9 24.46-4.16 29.080-4.74 2.96-0.36 8.32-1.18 11.88-1.78s9.74-1.42 13.66-1.78 8.9-0.94 11.040-1.18c2.14-0.36 7.84-0.94 12.46-1.3 4.74-0.36 10.44-0.84 12.7-1.060 25.64-2.74 91.78-2.74 128.82-0.12 12.7 0.94 25.28 2.020 27.9 2.5 1.66 0.24 6.18 0.84 10.1 1.18s8.78 0.94 10.68 1.18c2.020 0.36 8.080 1.18 13.66 1.9s11.4 1.54 13.060 1.78c3.080 0.36 27.66 4.64 33.84 5.82 59 11.4 136.66 34.66 181.060 54.26 3.56 1.66 8.9 3.92 11.88 5.22 2.96 1.18 11.64 5.34 19.24 9.020l14.020 6.76-1.42 3.32c-0.84 1.78-5.7 11.52-10.68 21.5-45.12 88.82-108.040 166.94-188.54 234.020-15.32 12.82-15.92 13.3-18.040 14.96-72.66 57.34-145.68 100.1-241.38 141.52-41.2 17.92-105.56 41.56-144.86 53.2-37.52 11.28-61.020 17.92-70.64 20.3-0.94 0.24-11.4 2.84-23.16 5.82-25.52 6.54-40.48 9.98-82.52 19-6.3 1.42-27.42 5.46-30.88 6.060-2.26 0.36-6.060 1.060-8.32 1.78-2.26 0.6-5.46 1.060-7.12 1.060h-2.96l0.12-248.16z" />
<glyph unicode="&#xe9df;" glyph-name="happy" d="M512-64c282.77 0 512 229.23 512 512s-229.23 512-512 512-512-229.23-512-512 229.23-512 512-512zM512 864c229.75 0 416-186.25 416-416s-186.25-416-416-416-416 186.25-416 416 186.25 416 416 416zM512 361.24c115.95 0 226.23 30.806 320 84.92-14.574-178.438-153.128-318.16-320-318.16-166.868 0-305.422 139.872-320 318.304 93.77-54.112 204.050-85.064 320-85.064zM256 608c0 53.019 28.654 96 64 96s64-42.981 64-96c0-53.019-28.654-96-64-96s-64 42.981-64 96zM640 608c0 53.019 28.654 96 64 96s64-42.981 64-96c0-53.019-28.654-96-64-96s-64 42.981-64 96z" />
<glyph unicode="&#xe9e0;" glyph-name="happy2" d="M512 960c-282.77 0-512-229.23-512-512s229.23-512 512-512 512 229.23 512 512-229.23 512-512 512zM704 704c35.348 0 64-42.98 64-96s-28.652-96-64-96-64 42.98-64 96 28.652 96 64 96zM320 704c35.346 0 64-42.98 64-96s-28.654-96-64-96-64 42.98-64 96 28.654 96 64 96zM512 64c-166.868 0-305.422 139.872-320 318.304 93.77-54.114 204.050-85.064 320-85.064s226.23 30.806 320 84.92c-14.574-178.438-153.128-318.16-320-318.16z" />
<glyph unicode="&#xe9e1;" glyph-name="smile" d="M512-64c282.77 0 512 229.23 512 512s-229.23 512-512 512-512-229.23-512-512 229.23-512 512-512zM512 864c229.75 0 416-186.25 416-416s-186.25-416-416-416-416 186.25-416 416 186.25 416 416 416zM256 640c0 35.346 28.654 64 64 64s64-28.654 64-64c0-35.346-28.654-64-64-64s-64 28.654-64 64zM640 640c0 35.346 28.654 64 64 64s64-28.654 64-64c0-35.346-28.654-64-64-64s-64 28.654-64 64zM704.098 332.74l82.328-49.396c-55.962-93.070-157.916-155.344-274.426-155.344s-218.464 62.274-274.426 155.344l82.328 49.396c39.174-65.148 110.542-108.74 192.098-108.74s152.924 43.592 192.098 108.74z" />
<glyph unicode="&#xe9e2;" glyph-name="smile2" d="M512 960c-282.77 0-512-229.23-512-512s229.23-512 512-512 512 229.23 512 512-229.23 512-512 512zM704 704c35.346 0 64-28.654 64-64s-28.654-64-64-64-64 28.654-64 64 28.654 64 64 64zM320 704c35.346 0 64-28.654 64-64s-28.654-64-64-64-64 28.654-64 64 28.654 64 64 64zM512 128c-116.51 0-218.464 62.274-274.426 155.344l82.328 49.396c39.174-65.148 110.542-108.74 192.098-108.74s152.924 43.592 192.098 108.74l82.328-49.396c-55.962-93.070-157.916-155.344-274.426-155.344z" />
<glyph unicode="&#xe9e3;" glyph-name="tongue" d="M512-64c282.77 0 512 229.23 512 512s-229.23 512-512 512-512-229.23-512-512 229.23-512 512-512zM512 864c229.75 0 416-186.25 416-416s-186.25-416-416-416-416 186.25-416 416 186.25 416 416 416zM256 640c0 35.346 28.654 64 64 64s64-28.654 64-64c0-35.346-28.654-64-64-64s-64 28.654-64 64zM640 640c0 35.346 28.654 64 64 64s64-28.654 64-64c0-35.346-28.654-64-64-64s-64 28.654-64 64zM768 384v-64h-64v-96c0-53.020-42.98-96-96-96s-96 42.98-96 96v96h-256v64h512z" />
<glyph unicode="&#xe9e4;" glyph-name="tongue2" d="M512 960c-282.77 0-512-229.23-512-512s229.23-512 512-512 512 229.23 512 512-229.23 512-512 512zM320 704c35.346 0 64-28.654 64-64s-28.654-64-64-64-64 28.654-64 64 28.654 64 64 64zM768 320h-64v-96c0-53.020-42.98-96-96-96s-96 42.98-96 96v96h-256v64h512v-64zM704 576c-35.346 0-64 28.654-64 64s28.654 64 64 64 64-28.654 64-64-28.654-64-64-64z" />
<glyph unicode="&#xe9e5;" glyph-name="sad" d="M512-64c282.77 0 512 229.23 512 512s-229.23 512-512 512-512-229.23-512-512 229.23-512 512-512zM512 864c229.75 0 416-186.25 416-416s-186.25-416-416-416-416 186.25-416 416 186.25 416 416 416zM256 640c0 35.346 28.654 64 64 64s64-28.654 64-64c0-35.346-28.654-64-64-64s-64 28.654-64 64zM640 640c0 35.346 28.654 64 64 64s64-28.654 64-64c0-35.346-28.654-64-64-64s-64 28.654-64 64zM319.902 179.26l-82.328 49.396c55.962 93.070 157.916 155.344 274.426 155.344 116.508 0 218.462-62.274 274.426-155.344l-82.328-49.396c-39.174 65.148-110.542 108.74-192.098 108.74-81.558 0-152.924-43.592-192.098-108.74z" />
<glyph unicode="&#xe9e6;" glyph-name="sad2" d="M512 960c-282.77 0-512-229.23-512-512s229.23-512 512-512 512 229.23 512 512-229.23 512-512 512zM704 704c35.346 0 64-28.654 64-64s-28.654-64-64-64-64 28.654-64 64 28.654 64 64 64zM320 704c35.346 0 64-28.654 64-64s-28.654-64-64-64-64 28.654-64 64 28.654 64 64 64zM704.098 179.26c-39.174 65.148-110.544 108.74-192.098 108.74-81.556 0-152.924-43.592-192.098-108.74l-82.328 49.396c55.96 93.070 157.916 155.344 274.426 155.344 116.508 0 218.464-62.274 274.426-155.344l-82.328-49.396z" />
<glyph unicode="&#xe9e7;" glyph-name="wink" d="M512-64c282.77 0 512 229.23 512 512s-229.23 512-512 512-512-229.23-512-512 229.23-512 512-512zM512 864c229.75 0 416-186.25 416-416s-186.25-416-416-416-416 186.25-416 416 186.25 416 416 416zM542.74 248.972c140.248 27.706 249.11 91.542 288.454 176.594-21.654-167.956-161.518-297.566-330.85-297.566-119.242 0-223.858 64.282-282.892 160.948 70.41-55.058 194.534-65.808 325.288-39.976zM640 608c0 53.019 28.654 96 64 96s64-42.981 64-96c0-53.019-28.654-96-64-96s-64 42.981-64 96zM352 588.5c-41.796 0-77.334-15.656-90.516-37.5-3.54 5.866-5.484 32.174-5.484 38.75 0 31.066 42.98 56.25 96 56.25s96-25.184 96-56.25c0-6.576-1.944-32.884-5.484-38.75-13.182 21.844-48.72 37.5-90.516 37.5z" />
<glyph unicode="&#xe9e8;" glyph-name="wink2" d="M512 960c-282.77 0-512-229.228-512-512 0-282.77 229.228-512 512-512 282.77 0 512 229.23 512 512 0 282.772-229.23 512-512 512zM704 704c35.346 0 64-42.98 64-96s-28.654-96-64-96-64 42.98-64 96 28.654 96 64 96zM352 647.938c59.646 0 102-22.332 102-57.282 0-7.398 3.812-42.994-0.17-49.594-14.828 24.576-54.81 42.188-101.83 42.188s-87.002-17.612-101.83-42.188c-3.982 6.6-0.17 42.196-0.17 49.594 0 34.95 42.354 57.282 102 57.282zM500.344 128c-119.242 0-223.858 64.28-282.892 160.952 70.41-55.060 194.534-65.81 325.288-39.978 140.248 27.706 249.11 91.542 288.454 176.594-21.654-167.96-161.518-297.568-330.85-297.568z" />
<glyph unicode="&#xe9e9;" glyph-name="grin" d="M512-64c282.77 0 512 229.23 512 512s-229.23 512-512 512-512-229.23-512-512 229.23-512 512-512zM512 864c229.75 0 416-186.25 416-416s-186.25-416-416-416-416 186.25-416 416 186.25 416 416 416zM192 448v-64c0-140.8 115.2-256 256-256h128c140.8 0 256 115.2 256 256v64h-640zM384 203.012c-26.538 9.458-50.924 24.822-71.544 45.446-36.406 36.402-56.456 84.54-56.456 135.542h128v-180.988zM576 192h-128v192h128v-192zM711.544 248.458c-20.624-20.624-45.010-35.988-71.544-45.446v180.988h128c0-51.002-20.048-99.14-56.456-135.542zM225.352 576c0.002 0 0 0 0 0 9.768 0 18.108 7.056 19.724 16.69 6.158 36.684 37.668 63.31 74.924 63.31s68.766-26.626 74.924-63.31c1.616-9.632 9.956-16.69 19.722-16.69 9.768 0 18.108 7.056 19.724 16.688 1.082 6.436 1.628 12.934 1.628 19.312 0 63.962-52.038 116-116 116s-116-52.038-116-116c0-6.378 0.548-12.876 1.628-19.312 1.62-9.632 9.96-16.688 19.726-16.688zM609.352 576c0.002 0 0 0 0 0 9.77 0 18.112 7.056 19.724 16.69 6.158 36.684 37.668 63.31 74.924 63.31s68.766-26.626 74.924-63.31c1.616-9.632 9.958-16.69 19.722-16.69s18.108 7.056 19.722 16.688c1.082 6.436 1.628 12.934 1.628 19.312 0 63.962-52.038 116-116 116s-116-52.038-116-116c0-6.378 0.544-12.876 1.626-19.312 1.624-9.632 9.964-16.688 19.73-16.688z" />
<glyph unicode="&#xe9ea;" glyph-name="grin2" d="M512 960c-282.77 0-512-229.23-512-512s229.226-512 512-512c282.77 0 512 229.23 512 512s-229.23 512-512 512zM704 724c63.962 0 116-52.038 116-116 0-6.378-0.546-12.876-1.628-19.312-1.618-9.632-9.958-16.688-19.724-16.688s-18.108 7.056-19.722 16.69c-6.16 36.684-37.67 53.31-74.926 53.31s-68.766-16.626-74.924-53.31c-1.616-9.632-9.956-16.69-19.722-16.69-0.002 0 0 0-0.002 0-9.766 0-18.106 7.056-19.722 16.688-1.084 6.436-1.63 12.934-1.63 19.312 0 63.962 52.038 116 116 116zM320 724c63.962 0 116-52.038 116-116 0-6.378-0.548-12.876-1.628-19.312-1.618-9.632-9.956-16.688-19.724-16.688s-18.106 7.056-19.722 16.69c-6.16 36.684-37.67 53.31-74.926 53.31s-68.766-16.626-74.924-53.31c-1.616-9.632-9.956-16.69-19.722-16.69 0 0 0 0 0 0-9.766 0-18.106 7.056-19.724 16.688-1.082 6.436-1.63 12.934-1.63 19.312 0 63.962 52.038 116 116 116zM192 384h192v-247.846c-110.094 28.606-192 129.124-192 247.846zM448 128v256h128v-256h-128zM640 136.154v247.846h192c0-118.722-81.904-219.24-192-247.846z" />
<glyph unicode="&#xe9eb;" glyph-name="cool" d="M512-64c282.77 0 512 229.23 512 512s-229.23 512-512 512-512-229.23-512-512 229.23-512 512-512zM512 864c229.75 0 416-186.25 416-416s-186.25-416-416-416-416 186.25-416 416 186.25 416 416 416zM800 704c17.6 0 32-14.4 32-32v-96c0-35.2-28.8-64-64-64h-128c-35.2 0-64 28.8-64 64h-128c0-35.2-28.8-64-64-64h-128c-35.2 0-64 28.8-64 64v96c0 17.6 14.4 32 32 32h192c17.6 0 32-14.4 32-32v-32h128v32c0 17.6 14.4 32 32 32h192zM512 192c93.208 0 174.772 49.818 219.546 124.278l54.88-32.934c-55.966-93.070-157.916-155.344-274.426-155.344-48.458 0-94.384 10.796-135.54 30.082l33.162 55.278c31.354-13.714 65.964-21.36 102.378-21.36z" />
<glyph unicode="&#xe9ec;" glyph-name="cool2" d="M512 960c-282.77 0-512-229.23-512-512s229.226-512 512-512c282.77 0 512 229.23 512 512s-229.23 512-512 512zM512 128c-48.458 0-94.384 10.796-135.542 30.082l33.162 55.276c31.356-13.712 65.966-21.358 102.38-21.358 93.208 0 174.772 49.818 219.542 124.278l54.882-32.934c-55.964-93.070-157.914-155.344-274.424-155.344zM832 576c0-35.2-28.8-64-64-64h-128c-35.2 0-64 28.8-64 64h-128c0-35.2-28.8-64-64-64h-128c-35.2 0-64 28.8-64 64v96c0 17.6 14.4 32 32 32h192c17.6 0 32-14.4 32-32v-32h128v32c0 17.6 14.4 32 32 32h192c17.6 0 32-14.4 32-32v-96z" />
<glyph unicode="&#xe9ed;" glyph-name="angry" d="M512-64c282.77 0 512 229.23 512 512s-229.23 512-512 512-512-229.23-512-512 229.23-512 512-512zM512 864c229.75 0 416-186.25 416-416s-186.25-416-416-416-416 186.25-416 416 186.25 416 416 416zM704.098 179.26c-39.174 65.148-110.544 108.74-192.098 108.74-81.556 0-152.924-43.592-192.098-108.74l-82.328 49.396c55.96 93.070 157.916 155.344 274.426 155.344 116.508 0 218.464-62.274 274.426-155.344l-82.328-49.396zM767.042 679.76c4.284-17.144-6.14-34.518-23.282-38.804-17.626-4.45-38.522-12.12-56.936-21.35 10.648-11.43 17.174-26.752 17.174-43.606 0-35.346-28.654-64-64-64s-64 28.654-64 64c0 1.17 0.036 2.33 0.098 3.484 2.032 47.454 45.212 78.946 81.592 97.138 34.742 17.37 69.102 26.060 70.548 26.422 17.146 4.288 34.518-6.138 38.806-23.284zM256.958 679.76c4.288 17.146 21.66 27.572 38.806 23.284 1.446-0.362 35.806-9.052 70.548-26.422 36.38-18.192 79.56-49.684 81.592-97.138 0.062-1.154 0.098-2.314 0.098-3.484 0-35.346-28.654-64-64-64s-64 28.654-64 64c0 16.854 6.526 32.176 17.174 43.606-18.414 9.23-39.31 16.9-56.936 21.35-17.142 4.286-27.566 21.66-23.282 38.804z" />
<glyph unicode="&#xe9ee;" glyph-name="angry2" d="M512 960c-282.77 0-512-229.23-512-512s229.23-512 512-512 512 229.23 512 512-229.23 512-512 512zM576.094 579.484c2.032 47.454 45.21 78.948 81.592 97.138 34.742 17.372 69.104 26.060 70.548 26.422 17.146 4.288 34.52-6.138 38.806-23.284s-6.138-34.518-23.284-38.806c-17.624-4.45-38.522-12.12-56.936-21.35 10.648-11.43 17.174-26.752 17.174-43.606 0-35.346-28.654-64-64-64s-64 28.654-64 64c0.002 1.17 0.038 2.332 0.1 3.486zM256.958 679.76c4.288 17.146 21.66 27.572 38.806 23.284 1.446-0.362 35.806-9.052 70.548-26.422 36.38-18.192 79.56-49.684 81.592-97.138 0.062-1.154 0.098-2.314 0.098-3.484 0-35.346-28.654-64-64-64s-64 28.654-64 64c0 16.854 6.526 32.176 17.174 43.606-18.414 9.23-39.31 16.9-56.936 21.35-17.142 4.286-27.566 21.66-23.282 38.804zM704.098 179.26c-39.174 65.148-110.544 108.74-192.098 108.74-81.556 0-152.924-43.592-192.098-108.74l-82.328 49.396c55.96 93.070 157.916 155.344 274.426 155.344 116.508 0 218.464-62.274 274.426-155.344l-82.328-49.396z" />
<glyph unicode="&#xe9ef;" glyph-name="evil" d="M639.996 512c-35.346 0-64 28.654-63.998 64.002 0 1.17 0.036 2.33 0.098 3.484 2.032 47.454 45.212 78.946 81.592 97.138 34.742 17.37 69.102 26.060 70.548 26.422 17.146 4.288 34.518-6.138 38.806-23.284 4.284-17.146-6.14-34.518-23.284-38.806-17.626-4.45-38.522-12.12-56.936-21.35 10.648-11.43 17.174-26.752 17.174-43.606 0-35.346-28.654-64-64-64zM280.242 640.956c-17.144 4.286-27.568 21.66-23.282 38.804 4.286 17.146 21.66 27.572 38.806 23.284 1.444-0.362 35.806-9.050 70.548-26.422 36.382-18.19 79.56-49.684 81.592-97.138 0.062-1.154 0.098-2.316 0.098-3.484 0-35.346-28.654-64-64-64s-64 28.654-64 64c0 16.854 6.526 32.176 17.174 43.606-18.414 9.23-39.312 16.9-56.936 21.35zM512 224c81.554 0 152.924 43.592 192.098 108.74l82.328-49.396c-55.962-93.070-157.916-155.344-274.426-155.344s-218.464 62.274-274.426 155.344l82.328 49.396c39.174-65.148 110.542-108.74 192.098-108.74zM1024 896c0 45.516-9.524 88.8-26.652 128-33.576-76.836-96.448-137.932-174.494-169.178-86.194 65.96-193.936 105.178-310.854 105.178s-224.66-39.218-310.854-105.178c-78.048 31.246-140.918 92.342-174.494 169.178-17.128-39.2-26.652-82.484-26.652-128 0-73.574 24.85-141.328 66.588-195.378-42.37-74.542-66.588-160.75-66.588-252.622 0-282.77 229.23-512 512-512s512 229.23 512 512c0 91.872-24.218 178.080-66.588 252.622 41.738 54.050 66.588 121.804 66.588 195.378zM512 32c-229.75 0-416 186.25-416 416s186.25 416 416 416 416-186.25 416-416-186.25-416-416-416z" />
<glyph unicode="&#xe9f0;" glyph-name="evil2" d="M1024 896c0 45.516-9.524 88.8-26.652 128-33.576-76.836-96.448-137.932-174.494-169.178-86.194 65.96-193.936 105.178-310.854 105.178s-224.66-39.218-310.854-105.178c-78.048 31.246-140.918 92.342-174.494 169.178-17.128-39.2-26.652-82.484-26.652-128 0-73.574 24.85-141.328 66.588-195.378-42.37-74.542-66.588-160.75-66.588-252.622 0-282.77 229.23-512 512-512s512 229.23 512 512c0 91.872-24.218 178.080-66.588 252.622 41.738 54.050 66.588 121.804 66.588 195.378zM576.094 579.484c2.032 47.454 45.21 78.948 81.592 97.138 34.742 17.372 69.104 26.060 70.548 26.422 17.146 4.288 34.52-6.138 38.806-23.284s-6.138-34.518-23.284-38.806c-17.624-4.45-38.522-12.12-56.936-21.35 10.648-11.43 17.174-26.752 17.174-43.606 0-35.346-28.654-64-64-64s-64 28.654-64 64c0.002 1.17 0.038 2.332 0.1 3.486zM256.958 679.76c4.288 17.146 21.66 27.572 38.806 23.284 1.446-0.362 35.806-9.052 70.548-26.422 36.38-18.192 79.56-49.684 81.592-97.138 0.062-1.154 0.098-2.314 0.098-3.484 0-35.346-28.654-64-64-64s-64 28.654-64 64c0 16.854 6.526 32.176 17.174 43.606-18.414 9.23-39.31 16.9-56.936 21.35-17.142 4.286-27.566 21.66-23.282 38.804zM512 128c-116.51 0-218.464 62.274-274.426 155.344l82.328 49.396c39.174-65.148 110.542-108.74 192.098-108.74 81.554 0 152.924 43.592 192.098 108.74l82.328-49.396c-55.962-93.070-157.916-155.344-274.426-155.344z" />
<glyph unicode="&#xe9f1;" glyph-name="shocked" d="M512-64c282.77 0 512 229.23 512 512s-229.23 512-512 512-512-229.23-512-512 229.23-512 512-512zM512 864c229.75 0 416-186.25 416-416s-186.25-416-416-416-416 186.25-416 416 186.25 416 416 416zM384 256c0 70.692 57.308 128 128 128s128-57.308 128-128c0-70.692-57.308-128-128-128s-128 57.308-128 128zM640 608c0 53.019 28.654 96 64 96s64-42.981 64-96c0-53.019-28.654-96-64-96s-64 42.981-64 96zM256 608c0 53.019 28.654 96 64 96s64-42.981 64-96c0-53.019-28.654-96-64-96s-64 42.981-64 96z" />
<glyph unicode="&#xe9f2;" glyph-name="shocked2" d="M512 960c-282.77 0-512-229.23-512-512s229.23-512 512-512 512 229.23 512 512-229.23 512-512 512zM320 512c-35.346 0-64 42.98-64 96s28.654 96 64 96 64-42.98 64-96-28.654-96-64-96zM512 128c-70.692 0-128 57.308-128 128s57.308 128 128 128c70.692 0 128-57.308 128-128s-57.308-128-128-128zM704 512c-35.346 0-64 42.98-64 96s28.654 96 64 96 64-42.98 64-96-28.654-96-64-96z" />
<glyph unicode="&#xe9f3;" glyph-name="baffled" d="M512-64c282.77 0 512 229.23 512 512s-229.23 512-512 512-512-229.23-512-512 229.23-512 512-512zM512 864c229.75 0 416-186.25 416-416s-186.25-416-416-416-416 186.25-416 416 186.25 416 416 416zM384 544c0-17.673-14.327-32-32-32s-32 14.327-32 32c0 17.673 14.327 32 32 32s32-14.327 32-32zM352 640c53.020 0 96-42.98 96-96s-42.98-96-96-96-96 42.98-96 96 42.98 96 96 96zM352 704c-88.224 0-160-71.776-160-160s71.776-160 160-160 160 71.776 160 160-71.776 160-160 160v0zM704 544c0-17.673-14.327-32-32-32s-32 14.327-32 32c0 17.673 14.327 32 32 32s32-14.327 32-32zM672 640c53.020 0 96-42.98 96-96s-42.98-96-96-96-96 42.98-96 96 42.98 96 96 96zM672 704c-88.224 0-160-71.776-160-160s71.776-160 160-160 160 71.776 160 160-71.776 160-160 160v0zM384 256h256v-64h-256v64z" />
<glyph unicode="&#xe9f4;" glyph-name="baffled2" d="M384 544c0-17.674-14.326-32-32-32s-32 14.326-32 32 14.326 32 32 32 32-14.326 32-32zM704 544c0-17.674-14.326-32-32-32s-32 14.326-32 32 14.326 32 32 32 32-14.326 32-32zM512 960c-282.77 0-512-229.23-512-512s229.23-512 512-512 512 229.23 512 512-229.23 512-512 512zM256 544c0 53.020 42.98 96 96 96s96-42.98 96-96-42.98-96-96-96-96 42.98-96 96zM640 192h-256v64h256v-64zM672 448c-53.020 0-96 42.98-96 96s42.98 96 96 96 96-42.98 96-96-42.98-96-96-96z" />
</font>
</defs>
</svg>
